<svg width="35" height="35" viewBox="0 0 35 35" fill="none" xmlns="http://www.w3.org/2000/svg">
<path d="M28.0396 34.3247C26.5145 34.3247 24.3723 33.7932 21.1645 32.0662C17.2636 29.9582 14.2464 28.0121 10.3667 24.2834C6.626 20.681 4.80567 18.3488 2.25798 13.8814C-0.62018 8.83746 -0.129549 6.19351 0.418896 5.0635C1.07203 3.71292 2.0361 2.90513 3.28221 2.10336C3.99 1.6565 4.73901 1.27345 5.51974 0.959051C5.59787 0.926679 5.67052 0.895813 5.73537 0.867958C6.12209 0.700076 6.70804 0.446371 7.45023 0.717391C7.94555 0.896565 8.38775 1.2632 9.07994 1.92193C10.4995 3.271 12.4394 6.27557 13.155 7.75112C13.6355 8.74561 13.9534 9.40209 13.9542 10.1384C13.9542 11.0004 13.5042 11.6651 12.9581 12.3826C12.8558 12.5173 12.7542 12.646 12.6558 12.771C12.0612 13.5239 11.9308 13.7414 12.0167 14.1299C12.1909 14.9106 13.4902 17.2346 15.6253 19.2876C17.7605 21.3405 20.1027 22.5134 20.916 22.6806C21.3363 22.7671 21.5668 22.6362 22.3731 22.0429C22.4887 21.9579 22.6075 21.8698 22.7317 21.7817C23.5645 21.1847 24.2223 20.7624 25.0958 20.7624H25.1005C25.8606 20.7624 26.5114 21.08 27.5896 21.604C28.9958 22.2876 32.2076 24.1328 33.6162 25.5022C34.3014 26.1677 34.6834 26.5923 34.8701 27.0688C35.1514 27.7863 34.8865 28.3487 34.7139 28.7251C34.685 28.7876 34.6529 28.8561 34.6193 28.9321C34.2905 29.6831 33.8906 30.4033 33.4248 31.0837C32.5943 32.2807 31.7529 33.2075 30.3482 33.8376C29.6269 34.1663 28.8375 34.3329 28.0396 34.3247Z" fill="#8D2828"/>
</svg>
