<svg width="35" height="35" viewBox="0 0 35 35" fill="none" xmlns="http://www.w3.org/2000/svg">
<path d="M28.0396 34.1545C26.5145 34.1545 24.3723 33.623 21.1645 31.896C17.2636 29.788 14.2464 27.8419 10.3667 24.113C6.626 20.5107 4.80567 18.1784 2.25798 13.711C-0.62018 8.66692 -0.129549 6.02293 0.418896 4.89291C1.07203 3.54231 2.0361 2.73451 3.28221 1.93273C3.99 1.48586 4.73901 1.1028 5.51974 0.788401C5.59787 0.756029 5.67053 0.725163 5.73537 0.697307C6.12209 0.529423 6.70804 0.275714 7.45023 0.546738C7.94555 0.725915 8.38775 1.09255 9.07994 1.75129C10.4995 3.10039 12.4394 6.10499 13.155 7.58057C13.6355 8.57508 13.9534 9.23156 13.9542 9.96784C13.9542 10.8298 13.5042 11.4946 12.9581 12.2121C12.8558 12.3468 12.7542 12.4756 12.6558 12.6005C12.0612 13.3534 11.9308 13.571 12.0167 13.9594C12.1909 14.7401 13.4902 17.0642 15.6253 19.1172C17.7605 21.1702 20.1027 22.3431 20.916 22.5102C21.3363 22.5968 21.5668 22.4658 22.3731 21.8726C22.4887 21.7875 22.6075 21.6994 22.7317 21.6113C23.5645 21.0143 24.2223 20.592 25.0958 20.592H25.1005C25.8606 20.592 26.5114 20.9097 27.5896 21.4337C28.9958 22.1173 32.2076 23.9625 33.6162 25.3319C34.3014 25.9974 34.6834 26.422 34.8701 26.8986C35.1514 27.616 34.8865 28.1784 34.7139 28.5548C34.685 28.6173 34.6529 28.6858 34.6193 28.7619C34.2905 29.5129 33.8906 30.2331 33.4248 30.9135C32.5943 32.1105 31.7529 33.0373 30.3482 33.6674C29.6269 33.9962 28.8375 34.1627 28.0396 34.1545Z" fill="#003D82"/>
</svg>
