<svg width="39" height="29" viewBox="0 0 39 29" fill="none" xmlns="http://www.w3.org/2000/svg">
<path d="M33.5416 0.0168457H4.79166C3.52125 0.0181501 2.30326 0.503121 1.40495 1.36535C0.50663 2.22757 0.00135897 3.39663 0 4.61599V24.3266C0.00135897 25.546 0.50663 26.7151 1.40495 27.5773C2.30326 28.4395 3.52125 28.9245 4.79166 28.9258H33.5416C34.8121 28.9245 36.03 28.4395 36.9284 27.5773C37.8267 26.7151 38.332 25.546 38.3333 24.3266V4.61599C38.332 3.39663 37.8267 2.22757 36.9284 1.36535C36.03 0.503121 34.8121 0.0181501 33.5416 0.0168457ZM32.3283 7.62433L20.0069 16.8226C19.7666 17.0019 19.471 17.0992 19.1667 17.0992C18.8623 17.0992 18.5667 17.0019 18.3264 16.8226L6.00498 7.62433C5.86022 7.5194 5.73862 7.3879 5.64726 7.23747C5.5559 7.08705 5.4966 6.92069 5.47281 6.74808C5.44901 6.57547 5.46119 6.40003 5.50865 6.23198C5.5561 6.06392 5.63788 5.90659 5.74923 5.76913C5.86058 5.63168 5.99928 5.51683 6.15727 5.43127C6.31526 5.3457 6.4894 5.29113 6.66955 5.27072C6.84971 5.25031 7.0323 5.26447 7.2067 5.31238C7.38111 5.36029 7.54386 5.44099 7.68549 5.54979L19.1667 14.1206L30.6478 5.54979C30.9349 5.34169 31.2958 5.25043 31.6525 5.29572C32.0091 5.34102 32.3328 5.51923 32.5537 5.79184C32.7745 6.06444 32.8746 6.40951 32.8325 6.75243C32.7903 7.09535 32.6092 7.40857 32.3283 7.62433Z" fill="#8D2828"/>
</svg>
