<svg width="39" height="30" viewBox="0 0 39 30" fill="none" xmlns="http://www.w3.org/2000/svg">
<path d="M33.5416 0.755859H4.79166C3.52125 0.757164 2.30326 1.24213 1.40495 2.10435C0.50663 2.96657 0.00135897 4.13561 0 5.35497V25.0654C0.00135897 26.2848 0.50663 27.4538 1.40495 28.3161C2.30326 29.1783 3.52125 29.6632 4.79166 29.6646H33.5416C34.8121 29.6632 36.03 29.1783 36.9284 28.3161C37.8267 27.4538 38.332 26.2848 38.3333 25.0654V5.35497C38.332 4.13561 37.8267 2.96657 36.9284 2.10435C36.03 1.24213 34.8121 0.757164 33.5416 0.755859ZM32.3283 8.36328L20.0069 17.5615C19.7666 17.7408 19.471 17.8381 19.1667 17.8381C18.8623 17.8381 18.5667 17.7408 18.3264 17.5615L6.00498 8.36328C5.86022 8.25835 5.73862 8.12685 5.64726 7.97643C5.5559 7.826 5.4966 7.65965 5.47281 7.48704C5.44901 7.31442 5.46119 7.13899 5.50865 6.97094C5.5561 6.80288 5.63788 6.64556 5.74923 6.5081C5.86058 6.37064 5.99928 6.2558 6.15727 6.17023C6.31526 6.08467 6.4894 6.0301 6.66955 6.00969C6.84971 5.98928 7.0323 6.00344 7.2067 6.05135C7.38111 6.09926 7.54386 6.17995 7.68549 6.28875L19.1667 14.8595L30.6478 6.28875C30.9349 6.08066 31.2958 5.98939 31.6525 6.03469C32.0091 6.07999 32.3328 6.2582 32.5537 6.5308C32.7745 6.8034 32.8746 7.14847 32.8325 7.49139C32.7903 7.83431 32.6092 8.14752 32.3283 8.36328Z" fill="#003D82"/>
</svg>
