<svg width="25" height="34" viewBox="0 0 25 34" fill="none" xmlns="http://www.w3.org/2000/svg">
<path d="M12.5 0.247803C5.59922 0.247803 0 5.10431 0 11.0886C0 20.7248 12.5 33.9746 12.5 33.9746C12.5 33.9746 25 20.7248 25 11.0886C25 5.10431 19.4008 0.247803 12.5 0.247803ZM12.5 17.1112C11.5111 17.1112 10.5444 16.8286 9.72215 16.2992C8.8999 15.7698 8.25904 15.0173 7.8806 14.1369C7.50216 13.2565 7.40315 12.2877 7.59607 11.3531C7.789 10.4185 8.2652 9.55999 8.96447 8.88617C9.66373 8.21234 10.5546 7.75346 11.5245 7.56755C12.4945 7.38165 13.4998 7.47706 14.4134 7.84173C15.327 8.2064 16.1079 8.82395 16.6573 9.61629C17.2068 10.4086 17.5 11.3402 17.5 12.2931C17.4986 13.5705 16.9713 14.7952 16.0339 15.6985C15.0966 16.6017 13.8256 17.1098 12.5 17.1112Z" fill="#003D82"/>
</svg>
