<svg width="25" height="35" viewBox="0 0 25 35" fill="none" xmlns="http://www.w3.org/2000/svg">
<path d="M12.5 0.75293C5.59922 0.75293 0 5.60944 0 11.5937C0 21.2299 12.5 34.4797 12.5 34.4797C12.5 34.4797 25 21.2299 25 11.5937C25 5.60944 19.4008 0.75293 12.5 0.75293ZM12.5 17.6163C11.5111 17.6163 10.5444 17.3338 9.72215 16.8043C8.8999 16.2749 8.25904 15.5224 7.8806 14.642C7.50216 13.7616 7.40315 12.7929 7.59607 11.8583C7.789 10.9236 8.2652 10.0651 8.96447 9.3913C9.66373 8.71747 10.5546 8.25859 11.5245 8.07268C12.4945 7.88677 13.4998 7.98219 14.4134 8.34686C15.327 8.71153 16.1079 9.32908 16.6573 10.1214C17.2068 10.9138 17.5 11.8453 17.5 12.7982C17.4986 14.0756 16.9713 15.3003 16.0339 16.2036C15.0966 17.1069 13.8256 17.6149 12.5 17.6163Z" fill="#8D2828"/>
</svg>
