<svg width="40" height="40" viewBox="0 0 40 40" fill="none" xmlns="http://www.w3.org/2000/svg">
<circle cx="20" cy="20" r="20" fill="#333333"/>
<path fill-rule="evenodd" clip-rule="evenodd" d="M15.3466 7.075C16.6795 7.01364 17.1045 7 20.5 7C23.8955 7 24.3205 7.01477 25.6523 7.075C26.9841 7.13523 27.8932 7.34773 28.6886 7.65568C29.5216 7.97045 30.2773 8.4625 30.9023 9.09886C31.5386 9.72273 32.0296 10.4773 32.3432 11.3114C32.6523 12.1068 32.8636 13.0159 32.925 14.3455C32.9864 15.6807 33 16.1057 33 19.5C33 22.8955 32.9852 23.3205 32.925 24.6534C32.8648 25.983 32.6523 26.892 32.3432 27.6875C32.0295 28.5217 31.5378 29.2775 30.9023 29.9023C30.2773 30.5386 29.5216 31.0295 28.6886 31.3432C27.8932 31.6523 26.9841 31.8636 25.6545 31.925C24.3205 31.9864 23.8955 32 20.5 32C17.1045 32 16.6795 31.9852 15.3466 31.925C14.017 31.8648 13.108 31.6523 12.3125 31.3432C11.4783 31.0295 10.7225 30.5378 10.0977 29.9023C9.4618 29.278 8.96968 28.5226 8.65568 27.6886C8.34773 26.8932 8.13636 25.9841 8.075 24.6545C8.01364 23.3193 8 22.8943 8 19.5C8 16.1045 8.01477 15.6795 8.075 14.3477C8.13523 13.0159 8.34773 12.1068 8.65568 11.3114C8.97014 10.4774 9.46264 9.72195 10.0989 9.09773C10.7228 8.46193 11.4778 7.96982 12.3114 7.65568C13.1068 7.34773 14.0159 7.13636 15.3455 7.075H15.3466ZM25.5511 9.325C24.233 9.26477 23.8375 9.25227 20.5 9.25227C17.1625 9.25227 16.767 9.26477 15.4489 9.325C14.2295 9.38068 13.5682 9.58409 13.1273 9.75568C12.5443 9.98295 12.1273 10.2523 11.6898 10.6898C11.2751 11.0932 10.9559 11.5844 10.7557 12.1273C10.5841 12.5682 10.3807 13.2295 10.325 14.4489C10.2648 15.767 10.2523 16.1625 10.2523 19.5C10.2523 22.8375 10.2648 23.233 10.325 24.5511C10.3807 25.7705 10.5841 26.4318 10.7557 26.8727C10.9557 27.4148 11.275 27.9068 11.6898 28.3102C12.0932 28.725 12.5852 29.0443 13.1273 29.2443C13.5682 29.4159 14.2295 29.6193 15.4489 29.675C16.767 29.7352 17.1614 29.7477 20.5 29.7477C23.8386 29.7477 24.233 29.7352 25.5511 29.675C26.7705 29.6193 27.4318 29.4159 27.8727 29.2443C28.4557 29.017 28.8727 28.7477 29.3102 28.3102C29.725 27.9068 30.0443 27.4148 30.2443 26.8727C30.4159 26.4318 30.6193 25.7705 30.675 24.5511C30.7352 23.233 30.7477 22.8375 30.7477 19.5C30.7477 16.1625 30.7352 15.767 30.675 14.4489C30.6193 13.2295 30.4159 12.5682 30.2443 12.1273C30.017 11.5443 29.7477 11.1273 29.3102 10.6898C28.9067 10.2751 28.4156 9.95592 27.8727 9.75568C27.4318 9.58409 26.7705 9.38068 25.5511 9.325ZM18.9034 23.3534C19.7951 23.7246 20.7879 23.7747 21.7124 23.4951C22.6369 23.2156 23.4357 22.6238 23.9723 21.8207C24.5089 21.0177 24.7501 20.0533 24.6546 19.0922C24.5591 18.1311 24.133 17.2329 23.4489 16.5511C23.0128 16.1153 22.4855 15.7816 21.9049 15.574C21.3244 15.3665 20.705 15.2902 20.0915 15.3507C19.4779 15.4112 18.8854 15.607 18.3566 15.924C17.8278 16.241 17.3758 16.6713 17.0333 17.1839C16.6908 17.6965 16.4661 18.2787 16.3756 18.8886C16.2851 19.4984 16.3309 20.1208 16.5097 20.7108C16.6886 21.3008 16.996 21.8439 17.4099 22.3008C17.8238 22.7578 18.3339 23.1173 18.9034 23.3534ZM15.9568 14.9568C16.5534 14.3602 17.2617 13.8869 18.0412 13.564C18.8208 13.2412 19.6563 13.075 20.5 13.075C21.3438 13.075 22.1792 13.2412 22.9588 13.564C23.7383 13.8869 24.4466 14.3602 25.0432 14.9568C25.6398 15.5534 26.1131 16.2617 26.436 17.0412C26.7588 17.8208 26.925 18.6563 26.925 19.5C26.925 20.3437 26.7588 21.1792 26.436 21.9588C26.1131 22.7383 25.6398 23.4466 25.0432 24.0432C23.8383 25.2481 22.204 25.925 20.5 25.925C18.796 25.925 17.1617 25.2481 15.9568 24.0432C14.7519 22.8383 14.075 21.204 14.075 19.5C14.075 17.796 14.7519 16.1617 15.9568 14.9568ZM28.35 14.0318C28.4979 13.8924 28.6162 13.7246 28.6981 13.5386C28.7799 13.3526 28.8237 13.152 28.8266 12.9488C28.8296 12.7456 28.7917 12.5438 28.7153 12.3555C28.6389 12.1671 28.5255 11.996 28.3818 11.8523C28.2381 11.7086 28.067 11.5952 27.8786 11.5188C27.6903 11.4424 27.4885 11.4045 27.2853 11.4075C27.0821 11.4104 26.8815 11.4542 26.6955 11.536C26.5095 11.6179 26.3417 11.7362 26.2023 11.8841C25.931 12.1716 25.7825 12.5535 25.7883 12.9488C25.7941 13.344 25.9536 13.7215 26.2331 14.001C26.5126 14.2805 26.8901 14.44 27.2853 14.4458C27.6805 14.4516 28.0625 14.3031 28.35 14.0318Z" fill="white"/>
</svg>
