<svg width="40" height="40" viewBox="0 0 40 40" fill="none" xmlns="http://www.w3.org/2000/svg">
<circle cx="20" cy="20" r="20" fill="#333333"/>
<path d="M11.2898 14.1519C12.801 14.1519 14.0261 12.9268 14.0261 11.4155C14.0261 9.9043 12.801 8.6792 11.2898 8.6792C9.77855 8.6792 8.55345 9.9043 8.55345 11.4155C8.55345 12.9268 9.77855 14.1519 11.2898 14.1519Z" fill="white"/>
<path d="M16.6098 16.2254V31.4066H21.3234V23.8992C21.3234 21.9182 21.696 19.9997 24.1522 19.9997C26.5747 19.9997 26.6047 22.2646 26.6047 24.0242V31.4078H31.3208V23.0825C31.3208 18.993 30.4403 15.8502 25.6605 15.8502C23.3656 15.8502 21.8274 17.1096 21.1983 18.3014H21.1345V16.2254H16.6098ZM8.92854 16.2254H13.6496V31.4066H8.92854V16.2254Z" fill="white"/>
</svg>
