<svg width="67" height="67" viewBox="0 0 67 67" fill="none" xmlns="http://www.w3.org/2000/svg">
<path fill-rule="evenodd" clip-rule="evenodd" d="M45.8992 51.7782C47.0935 50.5055 47.8581 48.8899 48.0851 47.1594L61.1082 52.9465C61.7456 53.2306 62.444 53.3508 63.1397 53.2962C63.8354 53.2417 64.5065 53.0142 65.0919 52.6343C65.6773 52.2544 66.1585 51.7343 66.4918 51.1211C66.825 50.5079 66.9997 49.8212 67 49.1233V17.8762C66.9994 17.1789 66.8247 16.4928 66.4916 15.8801C66.1586 15.2674 65.6779 14.7476 65.0931 14.3679C64.5082 13.9881 63.8378 13.7604 63.1427 13.7054C62.4475 13.6504 61.7496 13.7699 61.1124 14.053L48.0851 19.8401C47.819 17.8263 46.83 15.9779 45.3024 14.639C43.7748 13.3001 41.8126 12.562 39.7812 12.5623H17.889L20.8789 16.7498H39.7812C40.8918 16.7498 41.957 17.191 42.7423 17.9763C43.5276 18.7616 43.9688 19.8267 43.9688 20.9373V46.0623C43.9695 46.8268 43.761 47.577 43.3657 48.2314L45.8992 51.7782ZM5.97975 17.5035C5.42634 17.889 4.97434 18.4026 4.66227 19.0005C4.3502 19.5984 4.18732 20.2628 4.1875 20.9373V46.0623C4.1875 47.1729 4.62868 48.238 5.41399 49.0233C6.1993 49.8086 7.26441 50.2498 8.375 50.2498H29.3711L32.361 54.4373H8.375C6.15381 54.4373 4.0236 53.5549 2.45298 51.9843C0.882364 50.4137 0 48.2835 0 46.0623V20.9373C0 18.1107 1.39862 15.6108 3.54681 14.0949L5.97556 17.5035H5.97975ZM62.8125 49.1191L48.1562 42.6076V24.392L62.8125 17.8762V49.1233V49.1191ZM44.3582 64.0267L2.48319 5.40165L5.89181 2.9729L47.7668 61.5979L44.3582 64.0267Z" fill="#8D2828"/>
</svg>
