<svg width="40" height="40" viewBox="0 0 40 40" fill="none" xmlns="http://www.w3.org/2000/svg">
<path d="M26.6667 14.1666C28.8884 17.13 28.8884 22.87 26.6667 25.8333" stroke="black" stroke-width="2" stroke-linecap="round" stroke-linejoin="round"/>
<path d="M31.6667 8.33331C38.3134 14.68 38.3534 25.3616 31.6667 31.6666" stroke="black" stroke-width="2" stroke-linecap="round" stroke-linejoin="round"/>
<path d="M3.33337 24.9316V15.0666C3.33337 14.11 4.08004 13.3333 5.00004 13.3333H10.9767C11.1973 13.3325 11.4154 13.2871 11.6179 13.1997C11.8204 13.1124 12.0031 12.9849 12.155 12.825L17.155 7.17831C18.205 6.08498 20 6.85998 20 8.40498V31.595C20 33.1517 18.1834 33.92 17.14 32.805L12.1567 27.19C12.0044 27.0255 11.8198 26.8942 11.6145 26.8042C11.4092 26.7141 11.1875 26.6673 10.9634 26.6666H5.00004C4.08004 26.6666 3.33337 25.89 3.33337 24.9316Z" stroke="black" stroke-width="2" stroke-linecap="round" stroke-linejoin="round"/>
</svg>
