<svg width="40" height="40" viewBox="0 0 40 40" fill="none" xmlns="http://www.w3.org/2000/svg">
<circle cx="20" cy="20" r="20" fill="#333333"/>
<path d="M33.7706 19.8592C33.7706 19.7915 33.7706 19.7145 33.7675 19.6253C33.7644 19.376 33.7583 19.0959 33.7522 18.7973C33.7277 17.9386 33.6848 17.083 33.6175 16.2766C33.5256 15.1654 33.3909 14.239 33.2072 13.5434C33.0134 12.8175 32.6334 12.1554 32.1053 11.6234C31.5772 11.0914 30.9194 10.7081 30.1977 10.5117C29.3313 10.2778 27.6352 10.1331 25.2471 10.0439C24.1113 10.0008 22.8959 9.97307 21.6804 9.95768C21.2549 9.95153 20.8599 9.94845 20.5048 9.94537H19.6047C19.2495 9.94845 18.8546 9.95153 18.429 9.95768C17.2136 9.97307 15.9981 10.0008 14.8623 10.0439C12.4743 10.1362 10.7751 10.2809 9.91172 10.5117C9.18981 10.7076 8.53178 11.0908 8.00358 11.6228C7.47538 12.1549 7.09557 12.8172 6.9022 13.5434C6.71544 14.239 6.58379 15.1654 6.49195 16.2766C6.42459 17.083 6.38173 17.9386 6.35724 18.7973C6.34805 19.0959 6.34499 19.376 6.34193 19.6253C6.34193 19.7145 6.33887 19.7915 6.33887 19.8592V20.0316C6.33887 20.0993 6.33887 20.1762 6.34193 20.2655C6.34499 20.5148 6.35111 20.7949 6.35724 21.0934C6.38173 21.9521 6.42459 22.8078 6.49195 23.6142C6.58379 24.7253 6.7185 25.6517 6.9022 26.3473C7.29408 27.8216 8.44523 28.9851 9.91172 29.379C10.7751 29.613 12.4743 29.7576 14.8623 29.8469C15.9981 29.89 17.2136 29.9177 18.429 29.9331C18.8546 29.9392 19.2495 29.9423 19.6047 29.9454H20.5048C20.8599 29.9423 21.2549 29.9392 21.6804 29.9331C22.8959 29.9177 24.1113 29.89 25.2471 29.8469C27.6352 29.7545 29.3343 29.6099 30.1977 29.379C31.6642 28.9851 32.8154 27.8247 33.2072 26.3473C33.394 25.6517 33.5256 24.7253 33.6175 23.6142C33.6848 22.8078 33.7277 21.9521 33.7522 21.0934C33.7614 20.7949 33.7644 20.5148 33.7675 20.2655C33.7675 20.1762 33.7706 20.0993 33.7706 20.0316V19.8592ZM31.5662 20.0192C31.5662 20.0839 31.5662 20.1547 31.5632 20.2378C31.5601 20.4778 31.554 20.7425 31.5479 21.0288C31.5264 21.8475 31.4836 22.6662 31.4193 23.4264C31.3366 24.4175 31.2203 25.2301 31.0764 25.7749C30.8866 26.4858 30.3294 27.0491 29.6252 27.2368C28.9823 27.4092 27.3627 27.5477 25.1614 27.6308C24.047 27.6739 22.8469 27.7016 21.6498 27.717C21.2304 27.7232 20.8415 27.7262 20.4925 27.7262H19.6169L18.4596 27.717C17.2626 27.7016 16.0655 27.6739 14.948 27.6308C12.7467 27.5446 11.1241 27.4092 10.4842 27.2368C9.78008 27.046 9.22287 26.4858 9.03305 25.7749C8.88916 25.2301 8.77282 24.4175 8.69016 23.4264C8.62586 22.6662 8.58606 21.8475 8.56157 21.0288C8.55238 20.7425 8.54932 20.4748 8.54626 20.2378C8.54626 20.1547 8.5432 20.0808 8.5432 20.0192V19.8715C8.5432 19.8069 8.5432 19.7361 8.54626 19.653C8.54932 19.4129 8.55545 19.1482 8.56157 18.862C8.583 18.0432 8.62586 17.2245 8.69016 16.4643C8.77282 15.4732 8.88916 14.6607 9.03305 14.1159C9.22287 13.4049 9.78008 12.8416 10.4842 12.6539C11.1272 12.4815 12.7467 12.343 14.948 12.2599C16.0624 12.2168 17.2626 12.1891 18.4596 12.1738C18.8791 12.1676 19.2679 12.1645 19.6169 12.1645H20.4925L21.6498 12.1738C22.8469 12.1891 24.0439 12.2168 25.1614 12.2599C27.3627 12.3461 28.9853 12.4815 29.6252 12.6539C30.3294 12.8447 30.8866 13.4049 31.0764 14.1159C31.2203 14.6607 31.3366 15.4732 31.4193 16.4643C31.4836 17.2245 31.5234 18.0432 31.5479 18.862C31.557 19.1482 31.5601 19.416 31.5632 19.653C31.5632 19.7361 31.5662 19.8099 31.5662 19.8715V20.0192ZM17.3299 24.0697L24.4328 19.9146L17.3299 15.821V24.0697Z" fill="white"/>
</svg>
