<svg width="351" height="254" viewBox="0 0 351 254" fill="none" xmlns="http://www.w3.org/2000/svg">
<g clip-path="url(#clip0)">
<path d="M223.039 190.19V251.346H69.8196C52.3623 251.346 38.1588 237.628 38.1588 220.768C38.1588 203.907 52.3622 190.19 69.8196 190.19H223.039Z" fill="#F2F2F2"/>
<path d="M226.803 250.876C226.802 251.499 226.554 252.097 226.113 252.538C225.672 252.98 225.074 253.227 224.45 253.228H67.0905C58.544 253.228 50.3475 249.833 44.3042 243.789C38.2609 237.746 34.8658 229.55 34.8658 221.003C34.8658 212.456 38.2609 204.26 44.3042 198.217C50.3475 192.173 58.544 188.778 67.0905 188.778H224.45C225.074 188.778 225.673 189.026 226.114 189.467C226.555 189.908 226.803 190.507 226.803 191.13C226.803 191.754 226.555 192.353 226.114 192.794C225.673 193.235 225.074 193.483 224.45 193.483H67.0905C59.7916 193.483 52.7917 196.382 47.6307 201.543C42.4696 206.704 39.5701 213.704 39.5701 221.003C39.5701 228.302 42.4696 235.302 47.6307 240.463C52.7917 245.624 59.7916 248.523 67.0905 248.523H224.45C225.074 248.524 225.672 248.771 226.113 249.213C226.554 249.654 226.802 250.252 226.803 250.876Z" fill="#8D2828"/>
<path d="M223.039 204.303H58.3875C58.2627 204.303 58.143 204.253 58.0548 204.165C57.9666 204.077 57.917 203.957 57.917 203.832C57.917 203.707 57.9666 203.588 58.0548 203.5C58.143 203.411 58.2627 203.362 58.3875 203.362H223.039C223.164 203.362 223.284 203.411 223.372 203.5C223.46 203.588 223.51 203.707 223.51 203.832C223.51 203.957 223.46 204.077 223.372 204.165C223.284 204.253 223.164 204.303 223.039 204.303Z" fill="#8D2828"/>
<path d="M223.039 215.593H58.3875C58.2627 215.593 58.143 215.543 58.0548 215.455C57.9666 215.367 57.917 215.247 57.917 215.123C57.917 214.998 57.9666 214.878 58.0548 214.79C58.143 214.702 58.2627 214.652 58.3875 214.652H223.039C223.164 214.652 223.284 214.702 223.372 214.79C223.46 214.878 223.51 214.998 223.51 215.123C223.51 215.247 223.46 215.367 223.372 215.455C223.284 215.543 223.164 215.593 223.039 215.593Z" fill="#8D2828"/>
<path d="M223.039 226.883H58.3875C58.2627 226.883 58.143 226.834 58.0548 226.746C57.9666 226.657 57.917 226.538 57.917 226.413C57.917 226.288 57.9666 226.169 58.0548 226.08C58.143 225.992 58.2627 225.943 58.3875 225.943H223.039C223.164 225.943 223.284 225.992 223.372 226.08C223.46 226.169 223.51 226.288 223.51 226.413C223.51 226.538 223.46 226.657 223.372 226.746C223.284 226.834 223.164 226.883 223.039 226.883Z" fill="#8D2828"/>
<path d="M223.039 238.174H58.3875C58.2627 238.174 58.143 238.124 58.0548 238.036C57.9666 237.948 57.917 237.828 57.917 237.703C57.917 237.579 57.9666 237.459 58.0548 237.371C58.143 237.282 58.2627 237.233 58.3875 237.233H223.039C223.164 237.233 223.284 237.282 223.372 237.371C223.46 237.459 223.51 237.579 223.51 237.703C223.51 237.828 223.46 237.948 223.372 238.036C223.284 238.124 223.164 238.174 223.039 238.174Z" fill="#8D2828"/>
<path d="M341.455 201.701L303.085 249.323L183.776 153.19C170.182 142.236 167.729 122.643 178.307 109.514C188.886 96.3855 208.553 94.6152 222.146 105.568L341.455 201.701Z" fill="#F2F2F2"/>
<path d="M306.31 251.318C305.919 251.803 305.35 252.113 304.73 252.18C304.11 252.247 303.489 252.065 303.003 251.673L180.47 152.943C173.815 147.58 169.563 139.794 168.648 131.296C167.734 122.799 170.233 114.286 175.596 107.631C180.958 100.976 188.744 96.7241 197.242 95.81C205.739 94.8959 214.252 97.3948 220.907 102.757L343.44 201.488C343.681 201.682 343.881 201.921 344.029 202.192C344.177 202.463 344.271 202.761 344.304 203.068C344.337 203.375 344.309 203.686 344.222 203.983C344.135 204.279 343.991 204.556 343.797 204.796C343.603 205.037 343.363 205.237 343.092 205.385C342.821 205.533 342.523 205.626 342.216 205.659C341.909 205.692 341.598 205.664 341.302 205.577C341.005 205.49 340.729 205.345 340.488 205.151L217.955 106.42C215.141 104.151 211.908 102.458 208.439 101.439C204.971 100.42 201.336 100.094 197.742 100.48C194.147 100.866 190.664 101.956 187.492 103.688C184.319 105.421 181.518 107.761 179.25 110.576C176.982 113.391 175.291 116.625 174.273 120.094C173.255 123.563 172.931 127.198 173.318 130.792C173.705 134.386 174.797 137.869 176.53 141.041C178.264 144.213 180.606 147.012 183.421 149.279L305.955 248.01C306.44 248.402 306.75 248.97 306.817 249.59C306.884 250.211 306.701 250.832 306.31 251.318Z" fill="#8D2828"/>
<path d="M332.601 212.691L204.39 109.385C204.342 109.346 204.302 109.298 204.272 109.244C204.242 109.19 204.224 109.131 204.217 109.069C204.21 109.008 204.216 108.946 204.233 108.886C204.251 108.827 204.28 108.772 204.318 108.724C204.357 108.676 204.405 108.636 204.459 108.606C204.513 108.576 204.573 108.558 204.634 108.551C204.696 108.544 204.758 108.55 204.817 108.567C204.877 108.585 204.932 108.614 204.98 108.652L333.191 211.958C333.239 211.997 333.279 212.045 333.309 212.099C333.339 212.153 333.357 212.213 333.364 212.274C333.371 212.336 333.365 212.398 333.348 212.457C333.33 212.517 333.301 212.572 333.263 212.62C333.224 212.668 333.176 212.708 333.122 212.738C333.067 212.768 333.008 212.786 332.946 212.793C332.885 212.799 332.823 212.794 332.763 212.776C332.704 212.759 332.649 212.73 332.601 212.691V212.691Z" fill="#8D2828"/>
<path d="M325.517 221.483L197.306 118.177C197.209 118.098 197.147 117.985 197.134 117.861C197.12 117.737 197.157 117.613 197.235 117.516C197.313 117.419 197.427 117.357 197.551 117.343C197.675 117.33 197.799 117.366 197.896 117.444L326.107 220.75C326.155 220.789 326.195 220.837 326.225 220.891C326.255 220.945 326.273 221.005 326.28 221.066C326.287 221.128 326.281 221.19 326.264 221.249C326.246 221.308 326.217 221.364 326.179 221.412C326.14 221.46 326.092 221.5 326.038 221.53C325.983 221.559 325.924 221.578 325.862 221.585C325.801 221.591 325.739 221.586 325.679 221.568C325.62 221.551 325.565 221.522 325.517 221.483Z" fill="#8D2828"/>
<path d="M318.433 230.274L190.222 126.968C190.125 126.89 190.063 126.776 190.049 126.652C190.036 126.528 190.072 126.404 190.151 126.307C190.229 126.21 190.343 126.148 190.467 126.134C190.591 126.121 190.715 126.157 190.812 126.236L319.023 229.542C319.071 229.58 319.111 229.628 319.141 229.682C319.171 229.737 319.189 229.796 319.196 229.858C319.202 229.919 319.197 229.981 319.18 230.04C319.162 230.1 319.133 230.155 319.094 230.203C319.056 230.251 319.008 230.291 318.954 230.321C318.899 230.35 318.84 230.369 318.778 230.376C318.717 230.382 318.655 230.377 318.596 230.359C318.536 230.342 318.481 230.313 318.433 230.274V230.274Z" fill="#8D2828"/>
<path d="M311.349 239.066L183.138 135.76C183.09 135.721 183.05 135.673 183.02 135.619C182.991 135.565 182.972 135.506 182.966 135.444C182.959 135.383 182.964 135.321 182.982 135.261C182.999 135.202 183.028 135.147 183.067 135.099C183.106 135.051 183.154 135.011 183.208 134.981C183.262 134.951 183.322 134.933 183.383 134.926C183.444 134.919 183.506 134.925 183.566 134.942C183.625 134.96 183.68 134.989 183.728 135.027L311.939 238.333C311.988 238.372 312.028 238.42 312.057 238.474C312.087 238.528 312.106 238.588 312.112 238.649C312.119 238.711 312.114 238.773 312.096 238.832C312.079 238.892 312.05 238.947 312.011 238.995C311.972 239.043 311.924 239.083 311.87 239.113C311.816 239.143 311.756 239.161 311.695 239.168C311.633 239.174 311.571 239.169 311.512 239.151C311.453 239.134 311.397 239.105 311.349 239.066Z" fill="#8D2828"/>
<path d="M349.532 253.698H0.470433C0.345667 253.698 0.22601 253.649 0.137786 253.56C0.049563 253.472 0 253.353 0 253.228C0 253.103 0.049563 252.983 0.137786 252.895C0.22601 252.807 0.345667 252.757 0.470433 252.757H349.532C349.657 252.757 349.776 252.807 349.865 252.895C349.953 252.983 350.002 253.103 350.002 253.228C350.002 253.353 349.953 253.472 349.865 253.56C349.776 253.649 349.657 253.698 349.532 253.698Z" fill="#8D2828"/>
<path d="M159.045 183.762L153.667 183.761L151.109 163.017L159.046 163.018L159.045 183.762Z" fill="#FFB8B8"/>
<path d="M149.825 182.225H160.197V188.755H143.294C143.294 187.898 143.463 187.048 143.791 186.256C144.12 185.464 144.601 184.744 145.207 184.137C145.813 183.531 146.533 183.05 147.326 182.722C148.118 182.394 148.967 182.225 149.825 182.225Z" fill="#2F2E41"/>
<path d="M104.1 183.762L98.7224 183.761L96.1646 163.017L104.102 163.018L104.1 183.762Z" fill="#FFB8B8"/>
<path d="M94.8807 182.225H105.253V188.755H88.3502C88.3502 187.898 88.5191 187.048 88.8473 186.256C89.1755 185.464 89.6565 184.744 90.2629 184.137C90.8694 183.531 91.5893 183.05 92.3816 182.722C93.1739 182.394 94.0231 182.225 94.8807 182.225Z" fill="#2F2E41"/>
<path d="M122.064 29.8881V27.5359C122.064 23.5121 123.662 19.6532 126.507 16.808C129.353 13.9628 133.212 12.3644 137.235 12.3644H137.235C141.259 12.3644 145.118 13.9628 147.963 16.808C150.808 19.6532 152.407 23.5121 152.407 27.5359V29.8881C152.407 32.7889 151.254 35.5709 149.203 37.6221C147.152 39.6733 144.37 40.8256 141.469 40.8256H133.001C131.565 40.8256 130.143 40.5427 128.816 39.9931C127.489 39.4434 126.283 38.6377 125.267 37.6221C124.252 36.6064 123.446 35.4007 122.896 34.0737C122.347 32.7467 122.064 31.3244 122.064 29.8881Z" fill="#2F2E41"/>
<path d="M137.235 41.635C143.617 41.635 148.79 36.462 148.79 30.0807C148.79 23.6994 143.617 18.5264 137.235 18.5264C130.854 18.5264 125.681 23.6994 125.681 30.0807C125.681 36.462 130.854 41.635 137.235 41.635Z" fill="#FFB8B8"/>
<path d="M74.3871 69.7914C74.856 69.3487 75.4162 69.0141 76.0284 68.8113C76.6406 68.6085 77.2898 68.5424 77.9303 68.6176C78.5708 68.6929 79.187 68.9076 79.7355 69.2468C80.284 69.5859 80.7515 70.0412 81.105 70.5806L91.0098 68.707L93.6164 74.4484L79.5918 76.8978C78.6463 77.4317 77.5379 77.6001 76.4765 77.3713C75.4151 77.1425 74.4746 76.5323 73.833 75.6564C73.1915 74.7804 72.8935 73.6996 72.9957 72.6186C73.0978 71.5377 73.5928 70.5317 74.3871 69.7914V69.7914Z" fill="#FFB8B8"/>
<path d="M128.227 48.9115L128.357 49.1077L112.115 59.8075L84.708 68.5591C84.3447 68.6758 84.0331 68.9148 83.8262 69.2355C83.6194 69.5561 83.53 69.9386 83.5733 70.3177L84.1712 75.4673C84.1977 75.6952 84.2716 75.9151 84.388 76.1128C84.5045 76.3105 84.661 76.4817 84.8475 76.6154C85.0339 76.7491 85.2463 76.8423 85.4709 76.8892C85.6956 76.936 85.9275 76.9354 86.1519 76.8873L111.946 71.3584C113.194 71.0924 114.374 70.5727 115.413 69.8316L133.66 56.8491C134.322 56.3759 134.85 55.7396 135.193 55.002C135.535 54.2644 135.682 53.4507 135.617 52.6399C135.55 51.8281 135.273 51.0476 134.813 50.3753C134.353 49.703 133.725 49.1621 132.993 48.8057C132.26 48.4493 131.448 48.2897 130.635 48.3427C129.822 48.3956 129.037 48.6593 128.357 49.1077L128.227 48.9115Z" fill="#8D2828"/>
<path d="M153.763 177.875C153.35 177.875 152.946 177.755 152.6 177.529C152.255 177.304 151.982 176.982 151.816 176.604L127.161 115.683C127.103 115.551 127.007 115.439 126.884 115.364C126.761 115.288 126.618 115.252 126.474 115.26C126.33 115.268 126.192 115.32 126.079 115.409C125.965 115.498 125.882 115.619 125.84 115.757L105.725 175.066C105.64 175.342 105.499 175.598 105.312 175.818C105.124 176.038 104.894 176.217 104.635 176.344C104.376 176.471 104.093 176.544 103.805 176.559C103.516 176.573 103.228 176.528 102.958 176.426L96.2125 173.897C95.8464 173.761 95.5252 173.526 95.2846 173.218C95.044 172.911 94.8934 172.542 94.8496 172.154C91.8151 145.719 118.277 78.9944 118.545 78.3236L118.619 78.1378L142.741 83.4738L142.792 83.5285C152.416 94.0276 160.326 160.248 161.814 173.416C161.87 173.892 161.762 174.372 161.508 174.778C161.254 175.184 160.869 175.491 160.417 175.649L154.463 177.755C154.238 177.834 154.001 177.875 153.763 177.875Z" fill="#2F2E41"/>
<path d="M132.979 85.6215C127.134 85.6215 120.618 84.4562 118.613 79.6466L118.566 79.5361L118.629 79.4337C120.212 76.8362 122.304 72.4052 121.18 71.5735C118.964 69.9354 117.889 67.2408 117.985 63.5642C118.192 55.5829 123.63 48.4967 131.517 45.9312H131.517C133.719 45.2266 135.959 44.6498 138.227 44.2036C139.88 43.8699 141.587 43.9066 143.225 44.311C144.862 44.7154 146.39 45.4775 147.698 46.5424C149.022 47.6144 150.093 48.9663 150.833 50.5013C151.573 52.0362 151.964 53.7159 151.977 55.4198C152.06 63.9491 150.747 75.8287 144.021 83.9846C143.706 84.363 143.267 84.6181 142.782 84.7049C139.547 85.2902 136.267 85.5968 132.979 85.6215Z" fill="#8D2828"/>
<path d="M130.805 85.3021C131.123 84.1612 131.878 83.1919 132.907 82.6048C133.936 82.0178 135.154 81.8605 136.298 82.1671C136.532 82.2324 136.76 82.3167 136.98 82.4193L144.5 75.5751L149.73 79.0987L138.976 88.616C138.49 89.4917 137.725 90.1797 136.804 90.5707C135.882 90.9617 134.856 91.0331 133.889 90.7737C133.325 90.6196 132.798 90.3552 132.338 89.9961C131.877 89.6369 131.492 89.19 131.205 88.6812C130.919 88.1724 130.736 87.6118 130.667 87.0318C130.598 86.4518 130.645 85.8639 130.805 85.3021Z" fill="#FFB8B8"/>
<path d="M143.309 85.3891C142.821 85.3894 142.348 85.2206 141.97 84.9115L139.005 82.4879C138.757 82.2859 138.559 82.0305 138.424 81.741C138.29 81.4515 138.223 81.1352 138.227 80.816C138.232 80.4968 138.31 80.1828 138.453 79.8975C138.596 79.6123 138.803 79.3632 139.056 79.1689L151.495 69.6286C151.642 69.515 151.739 69.3478 151.764 69.1633C151.789 68.9788 151.74 68.7919 151.628 68.6432L143.951 58.4931C143.059 57.3177 142.611 55.8647 142.688 54.3912C142.764 52.9177 143.359 51.5187 144.368 50.4419C145.431 49.2945 146.886 48.5884 148.444 48.4637C150.003 48.339 151.552 48.8049 152.783 49.7689L152.832 49.8201L160.849 61.2998C161.716 61.9795 162.414 62.8505 162.889 63.8446C163.363 64.8387 163.602 65.9291 163.585 67.0307C163.569 68.1322 163.298 69.215 162.794 70.1945C162.29 71.1741 161.566 72.0239 160.679 72.6775L144.569 84.974C144.204 85.2436 143.763 85.3891 143.309 85.3891Z" fill="#8D2828"/>
<path d="M127.001 26.8302V21.0974L137.235 16.6283L146.994 21.0974V26.8302C146.994 27.0797 146.895 27.319 146.719 27.4955C146.542 27.6719 146.303 27.7711 146.053 27.7711H127.942C127.692 27.7711 127.453 27.6719 127.276 27.4955C127.1 27.319 127.001 27.0797 127.001 26.8302Z" fill="#2F2E41"/>
<path d="M136.765 13.1249C135.261 8.30837 138.421 2.78839 143.093 0.881879C147.765 -1.02463 153.355 0.308078 157.297 3.45792C161.24 6.60776 163.686 11.3256 164.982 16.2025C166.278 21.0794 166.524 26.1648 166.763 31.2053C172.503 32.2597 176.408 39.0682 174.42 44.5554C172.431 50.0425 165.071 52.7686 159.988 49.9006C154.905 47.0326 153.432 39.3231 157.101 34.7838C158.837 32.636 159.807 29.9703 159.856 27.2092C159.906 24.448 159.033 21.7491 157.376 19.5399C155.719 17.3308 153.372 15.7376 150.708 15.0128C148.043 14.2881 145.212 14.4731 142.664 15.5385C139.835 16.7216 136.286 13.6477 136.765 13.1249Z" fill="#2F2E41"/>
<path d="M72.2652 47.5527C65.3925 47.5076 58.6057 46.0212 52.3433 43.1895C51.9705 43.0233 51.6541 42.7524 51.4326 42.4096C51.2111 42.0668 51.094 41.6669 51.0958 41.2588V24.1266C51.0964 23.5653 51.3196 23.0272 51.7165 22.6304C52.1134 22.2335 52.6514 22.0103 53.2127 22.0096H91.3178C91.879 22.0103 92.4171 22.2335 92.814 22.6304C93.2109 23.0273 93.4341 23.5653 93.4347 24.1266V41.2588C93.4364 41.667 93.3194 42.0668 93.0979 42.4096C92.8764 42.7524 92.56 43.0233 92.1872 43.1895C85.9248 46.0212 79.138 47.5076 72.2652 47.5527Z" fill="#8D2828"/>
<path d="M72.26 33.6736C71.9775 33.6738 71.6978 33.6176 71.4374 33.5082L41.2205 20.7596C40.8309 20.5952 40.4994 20.3179 40.2688 19.9633C40.0382 19.6088 39.9191 19.1933 39.9269 18.7705C39.9346 18.3476 40.0689 17.9368 40.3123 17.5909C40.5557 17.2451 40.8971 16.9801 41.2926 16.8301L71.5098 5.36668C71.9965 5.1812 72.5346 5.18234 73.0205 5.3699L102.833 16.8333C103.226 16.9845 103.565 17.2495 103.807 17.5946C104.049 17.9396 104.182 18.3489 104.19 18.7701C104.197 19.1913 104.079 19.6052 103.851 19.9589C103.622 20.3126 103.293 20.5901 102.905 20.7557L73.0927 33.504C72.8294 33.6161 72.5462 33.6738 72.26 33.6736Z" fill="#8D2828"/>
<path d="M54.624 44.3553C56.1829 44.3553 57.4466 43.0916 57.4466 41.5327C57.4466 39.9738 56.1829 38.7101 54.624 38.7101C53.0651 38.7101 51.8014 39.9738 51.8014 41.5327C51.8014 43.0916 53.0651 44.3553 54.624 44.3553Z" fill="#333333"/>
<path opacity="0.2" d="M103.008 18.9461L73.1956 31.6944C72.9631 31.7938 72.7131 31.8454 72.4603 31.846C72.2075 31.8466 71.9572 31.7962 71.7243 31.698L41.5075 18.9498C41.128 18.7935 40.8114 18.5153 40.6077 18.159C40.4745 18.39 40.3919 18.6467 40.3655 18.9121C40.3391 19.1775 40.3694 19.4455 40.4545 19.6983C40.5396 19.951 40.6775 20.1828 40.8591 20.3782C41.0406 20.5736 41.2616 20.7281 41.5075 20.8315L71.7243 33.5797C71.9572 33.678 72.2075 33.7283 72.4603 33.7277C72.7131 33.7271 72.9631 33.6755 73.1956 33.5762L103.008 20.8278C103.253 20.7235 103.473 20.5685 103.653 20.373C103.833 20.1775 103.97 19.946 104.054 19.6938C104.138 19.4416 104.168 19.1744 104.142 18.9098C104.115 18.6452 104.032 18.3893 103.9 18.1589C103.697 18.5124 103.384 18.7891 103.008 18.9461Z" fill="#003D82"/>
<path d="M54.8612 41.5217C54.986 41.5217 55.1056 41.4721 55.1938 41.3839C55.2821 41.2957 55.3316 41.176 55.3316 41.0512V25.3099L70.8471 19.6575C70.9718 19.6594 71.0922 19.6116 71.1818 19.5247C71.2713 19.4378 71.3227 19.3189 71.3245 19.1941C71.3264 19.0693 71.2786 18.949 71.1917 18.8594C71.1048 18.7699 70.9859 18.7185 70.8611 18.7167L55.3456 24.369C55.2208 24.3661 55.0966 24.3886 54.9807 24.4351C54.8648 24.4816 54.7596 24.5512 54.6713 24.6396C54.5822 24.7269 54.5114 24.8312 54.4632 24.9463C54.415 25.0615 54.3904 25.1851 54.3908 25.3099V41.0512C54.3908 41.176 54.4403 41.2956 54.5285 41.3839C54.6168 41.4721 54.7364 41.5217 54.8612 41.5217Z" fill="#333333"/>
</g>
<defs>
<clipPath id="clip0">
<rect width="350.002" height="253.698" fill="white"/>
</clipPath>
</defs>
</svg>
