<svg width="563" height="377" viewBox="0 0 563 377" fill="none" xmlns="http://www.w3.org/2000/svg">
<path opacity="0.1" d="M327.289 62.3466C291.26 61.0941 256.947 49.4651 224.18 36.7393C191.414 24.0136 158.96 9.91293 123.772 3.17153C101.176 -1.16501 75.3074 -1.77736 57.0817 10.3416C39.5463 22.0319 33.8793 42.1559 30.8342 60.8436C28.5407 74.9109 27.1935 89.7075 33.4729 102.873C37.8372 112.014 45.5751 119.696 50.9304 128.48C69.5625 158.942 56.3914 196.507 36.2062 226.25C26.7426 240.2 15.7482 253.527 8.43897 268.368C1.12975 283.21 -2.24929 300.238 4.14696 315.386C10.482 330.416 25.5847 341.683 41.9455 349.621C75.1738 365.732 114.314 370.347 152.508 372.958C237.029 378.741 321.995 376.236 406.738 373.731C438.101 372.802 469.598 371.861 500.45 367.012C517.584 364.318 535.27 360.043 547.706 349.755C563.499 336.656 567.413 314.473 556.83 298.051C539.083 270.501 490.029 263.653 477.609 234.088C470.784 217.816 477.793 199.685 487.718 184.594C509.006 152.212 544.683 123.81 546.559 86.796C547.851 61.378 530.7 35.921 504.179 23.8912C476.384 11.2824 437.834 12.8689 417.337 33.7388C396.211 55.1822 359.103 63.4489 327.289 62.3466Z" fill="#8D2828"/>
<g clip-path="url(#clip0)">
<path opacity="0.5" d="M307.418 351.566C304.417 353.768 301.163 355.585 297.729 356.977C296.83 357.345 295.925 357.688 295.005 358H248.068C247.878 357.662 247.693 357.32 247.503 356.977C243.695 350.001 240.242 342.753 239.263 334.872C238.089 325.41 241.382 314.694 249.522 310.045C250.588 309.437 251.718 308.953 252.89 308.603C253.375 308.449 253.869 308.327 254.369 308.219C257.42 307.526 260.597 307.677 263.572 308.657C266.548 309.637 269.214 311.41 271.298 313.795C273.382 316.179 274.808 319.089 275.429 322.224C276.05 325.359 275.844 328.607 274.832 331.634C281.733 324.392 280.444 312.649 278.065 302.834C275.682 293.019 272.793 282.094 277.646 273.276C280.339 268.371 285.081 265.328 290.398 264.1C290.563 264.065 290.728 264.029 290.888 263.998C297.227 262.684 303.817 263.866 309.342 267.307C319.516 273.864 324.738 286.308 326.432 298.491C329.166 318.101 323.119 339.981 307.418 351.566Z" fill="#E0E0E0"/>
<path opacity="0.5" d="M258.053 314.469C261.81 322.278 263.009 331.118 261.47 339.679C260.31 345.956 257.752 351.875 253.995 356.977C253.74 357.325 253.48 357.668 253.215 358H251.361C251.646 357.668 251.926 357.325 252.191 356.977C255.603 352.626 258.077 347.586 259.45 342.186C260.823 336.787 261.063 331.151 260.156 325.65C259.08 319.461 256.59 313.62 252.89 308.603C253.375 308.449 253.87 308.327 254.37 308.219C255.777 310.186 257.009 312.278 258.053 314.469V314.469Z" fill="white"/>
<path opacity="0.5" d="M302.956 320.131C302.555 324.456 301.54 328.698 299.943 332.723C298.471 336.286 296.487 339.602 294.056 342.564C289.094 348.676 282.528 353.274 275.397 356.333C274.877 356.558 274.353 356.772 273.823 356.977C272.903 357.345 271.974 357.683 271.04 358H265.978C267.172 357.693 268.361 357.35 269.536 356.977C272.328 356.088 275.052 354.989 277.686 353.688C284.381 350.44 290.194 345.56 294.616 339.475C299.358 332.775 301.452 324.719 301.812 316.53C302.192 307.769 301.077 298.849 299.123 290.323C297.129 281.584 294.097 273.128 290.094 265.144C290.004 264.963 289.986 264.754 290.042 264.56C290.099 264.366 290.227 264.201 290.398 264.1C290.543 264.003 290.718 263.966 290.888 263.998C290.971 264.02 291.049 264.061 291.114 264.117C291.18 264.174 291.233 264.245 291.268 264.325C291.763 265.313 292.247 266.3 292.712 267.297C296.592 275.612 299.451 284.388 301.222 293.423C302.936 302.138 303.855 311.257 302.956 320.131Z" fill="white"/>
<path d="M94.2227 212.744C90.0717 212.744 86.0139 211.484 82.5625 209.124C79.111 206.764 76.421 203.409 74.8325 199.483C73.244 195.558 72.8283 191.239 73.6381 187.072C74.448 182.905 76.4469 179.077 79.3821 176.073C82.3173 173.069 86.0569 171.023 90.1282 170.194C94.1994 169.365 98.4193 169.791 102.254 171.416C106.089 173.042 109.367 175.796 111.673 179.328C113.98 182.861 115.21 187.014 115.21 191.263C115.204 196.958 112.991 202.418 109.056 206.445C105.122 210.473 99.787 212.738 94.2227 212.744V212.744ZM94.2227 170.804C90.2693 170.804 86.4048 172.004 83.1177 174.252C79.8306 176.5 77.2687 179.695 75.7558 183.434C74.2429 187.172 73.8471 191.285 74.6184 195.254C75.3896 199.223 77.2933 202.868 80.0888 205.729C82.8842 208.59 86.4458 210.539 90.3231 211.328C94.2005 212.118 98.2195 211.712 101.872 210.164C105.524 208.616 108.646 205.993 110.842 202.629C113.039 199.265 114.211 195.309 114.211 191.263C114.205 185.839 112.097 180.639 108.35 176.803C104.603 172.968 99.5221 170.81 94.2227 170.804V170.804Z" fill="#3F3D56"/>
<path d="M179.173 143.697C175.022 143.697 170.964 142.437 167.513 140.076C164.061 137.716 161.371 134.361 159.783 130.436C158.194 126.511 157.779 122.191 158.588 118.024C159.398 113.857 161.397 110.03 164.332 107.025C167.267 104.021 171.007 101.975 175.078 101.146C179.15 100.318 183.37 100.743 187.205 102.369C191.04 103.995 194.317 106.748 196.624 110.281C198.93 113.813 200.161 117.967 200.161 122.215C200.154 127.91 197.941 133.371 194.007 137.398C190.072 141.425 184.737 143.69 179.173 143.697ZM179.173 101.757C175.22 101.757 171.355 102.956 168.068 105.204C164.781 107.453 162.219 110.648 160.706 114.386C159.193 118.124 158.797 122.238 159.569 126.206C160.34 130.175 162.244 133.82 165.039 136.682C167.834 139.543 171.396 141.491 175.273 142.281C179.151 143.07 183.17 142.665 186.822 141.116C190.475 139.568 193.596 136.946 195.793 133.581C197.989 130.217 199.161 126.261 199.161 122.215C199.155 116.791 197.047 111.591 193.3 107.756C189.553 103.92 184.472 101.763 179.173 101.757V101.757Z" fill="#3F3D56"/>
<path d="M270.12 110.963C265.969 110.963 261.911 109.703 258.46 107.343C255.009 104.982 252.318 101.627 250.73 97.7021C249.141 93.7769 248.726 89.4576 249.536 85.2906C250.345 81.1236 252.344 77.296 255.28 74.2918C258.215 71.2875 261.954 69.2416 266.026 68.4128C270.097 67.5839 274.317 68.0093 278.152 69.6352C281.987 71.2611 285.265 74.0144 287.571 77.547C289.877 81.0796 291.108 85.2328 291.108 89.4815C291.102 95.1767 288.888 100.637 284.954 104.664C281.019 108.691 275.685 110.957 270.12 110.963ZM270.12 69.0229C266.167 69.0229 262.302 70.2228 259.015 72.4708C255.728 74.7188 253.166 77.914 251.653 81.6523C250.14 85.3906 249.745 89.5042 250.516 93.4727C251.287 97.4413 253.191 101.087 255.986 103.948C258.782 106.809 262.343 108.758 266.221 109.547C270.098 110.336 274.117 109.931 277.769 108.383C281.422 106.834 284.544 104.212 286.74 100.848C288.936 97.4832 290.109 93.5278 290.109 89.4815C290.103 84.0574 287.995 78.8572 284.247 75.0218C280.5 71.1865 275.42 69.029 270.12 69.0229V69.0229Z" fill="#3F3D56"/>
<path d="M367.064 144.72C362.913 144.72 358.855 143.46 355.404 141.099C351.952 138.739 349.262 135.384 347.674 131.459C346.085 127.533 345.67 123.214 346.479 119.047C347.289 114.88 349.288 111.053 352.223 108.048C355.159 105.044 358.898 102.998 362.969 102.169C367.041 101.341 371.261 101.766 375.096 103.392C378.931 105.018 382.209 107.771 384.515 111.304C386.821 114.836 388.052 118.989 388.052 123.238C388.045 128.933 385.832 134.394 381.898 138.421C377.963 142.448 372.628 144.713 367.064 144.72V144.72ZM367.064 102.78C363.111 102.78 359.246 103.979 355.959 106.227C352.672 108.475 350.11 111.671 348.597 115.409C347.084 119.147 346.688 123.261 347.46 127.229C348.231 131.198 350.135 134.843 352.93 137.704C355.725 140.566 359.287 142.514 363.164 143.304C367.042 144.093 371.061 143.688 374.713 142.139C378.366 140.591 381.487 137.969 383.684 134.604C385.88 131.24 387.052 127.284 387.052 123.238C387.046 117.814 384.939 112.614 381.191 108.778C377.444 104.943 372.363 102.786 367.064 102.78V102.78Z" fill="#3F3D56"/>
<path d="M456.012 196.377C451.861 196.377 447.803 195.118 444.352 192.757C440.901 190.397 438.211 187.042 436.622 183.117C435.034 179.191 434.618 174.872 435.428 170.705C436.238 166.538 438.236 162.71 441.172 159.706C444.107 156.702 447.846 154.656 451.918 153.827C455.989 152.998 460.209 153.424 464.044 155.05C467.879 156.676 471.157 159.429 473.463 162.961C475.769 166.494 477 170.647 477 174.896C476.994 180.591 474.781 186.051 470.846 190.079C466.911 194.106 461.577 196.371 456.012 196.377V196.377ZM456.012 154.437C452.059 154.437 448.194 155.637 444.907 157.885C441.62 160.133 439.058 163.328 437.545 167.067C436.032 170.805 435.637 174.919 436.408 178.887C437.179 182.856 439.083 186.501 441.878 189.362C444.674 192.224 448.235 194.172 452.113 194.961C455.99 195.751 460.009 195.346 463.661 193.797C467.314 192.249 470.436 189.626 472.632 186.262C474.828 182.898 476.001 178.942 476.001 174.896C475.995 169.472 473.887 164.272 470.14 160.436C466.392 156.601 461.312 154.444 456.012 154.437V154.437Z" fill="#3F3D56"/>
<path d="M191.166 116.332L193.665 115.821C193.665 115.821 191.566 118.225 191.166 118.378C191.129 118.889 191.129 119.402 191.166 119.912C186.369 140.985 168.679 131.676 168.679 131.676C175.125 131.83 175.675 129.119 175.675 129.119C171.927 128.556 171.178 126.05 171.178 126.05C171.514 126.232 171.904 126.28 172.273 126.185C172.642 126.091 172.963 125.861 173.177 125.539C169.129 124.464 169.679 120.424 169.679 120.424C170.4 120.957 171.243 121.292 172.127 121.396C171.677 120.833 167.88 116.179 170.178 113.775C170.178 113.775 172.977 118.889 180.322 119.35L180.822 119.248C180.737 118.879 180.704 118.5 180.722 118.122C180.722 116.698 181.275 115.332 182.259 114.325C183.243 113.318 184.578 112.752 185.969 112.752C189.467 112.752 190.217 114.798 190.217 114.798L192.715 113.263C192.665 113.263 192.415 115.821 191.166 116.332Z" fill="#3F3D56"/>
<path d="M350.738 344.003L356.24 346.763L369.258 326.359L361.139 322.285L350.738 344.003Z" fill="#FFB8B8"/>
<path d="M350.215 341.461L361.049 346.896L361.049 346.896C361.956 347.351 362.766 347.984 363.434 348.76C364.101 349.535 364.613 350.437 364.94 351.415C365.266 352.393 365.402 353.427 365.338 354.458C365.274 355.49 365.013 356.498 364.568 357.426L364.459 357.656L346.721 348.757L350.215 341.461Z" fill="#2F2E41"/>
<path d="M405.253 353.623L411.38 353.623L414.294 329.437H405.252L405.253 353.623Z" fill="#FFB8B8"/>
<path d="M403.69 349.53L415.755 349.53H415.756C416.766 349.53 417.765 349.733 418.698 350.129C419.631 350.524 420.479 351.104 421.193 351.835C421.907 352.565 422.473 353.433 422.859 354.388C423.246 355.343 423.445 356.366 423.445 357.399V357.655L403.691 357.656L403.69 349.53Z" fill="#2F2E41"/>
<path d="M392.094 186.705C398.873 186.705 404.368 181.081 404.368 174.143C404.368 167.205 398.873 161.581 392.094 161.581C385.316 161.581 379.821 167.205 379.821 174.143C379.821 181.081 385.316 186.705 392.094 186.705Z" fill="#FFB8B8"/>
<path d="M404.316 345.646C403.737 345.645 403.18 345.416 402.762 345.006C402.344 344.596 402.097 344.037 402.072 343.445L397.328 278.816C397.322 278.646 397.262 278.483 397.157 278.353C397.052 278.222 396.907 278.131 396.746 278.093C396.584 278.055 396.415 278.073 396.265 278.144C396.114 278.215 395.991 278.335 395.914 278.485L365.566 337.785C365.291 338.317 364.824 338.718 364.264 338.903C363.704 339.088 363.096 339.042 362.569 338.776L354.109 334.446C353.578 334.173 353.174 333.697 352.985 333.12C352.795 332.544 352.836 331.915 353.098 331.369L371.207 293.811L383.201 265.678C387.831 256.344 392.747 251.534 398.231 250.973C403.856 250.398 409.864 254.357 416.601 263.078L416.656 263.149L416.655 263.24L415.655 342.188C415.657 342.761 415.448 343.315 415.071 343.738C414.693 344.162 414.174 344.425 413.616 344.476L404.536 345.635C404.462 345.642 404.389 345.646 404.316 345.646Z" fill="#2F2E41"/>
<path d="M379.14 270.222C379.808 269.8 380.377 269.233 380.808 268.562C381.239 267.89 381.521 267.131 381.634 266.336C381.746 265.541 381.688 264.73 381.461 263.961C381.235 263.192 380.847 262.483 380.324 261.884L382.174 211.834L373.18 212.982L372.421 261.673C371.496 262.639 370.95 263.918 370.885 265.269C370.821 266.62 371.243 267.948 372.071 269.002C372.899 270.055 374.076 270.762 375.379 270.986C376.682 271.211 378.02 270.939 379.14 270.222V270.222Z" fill="#FFB8B8"/>
<path d="M384.83 220.683L372.751 219.278C372.407 219.238 372.076 219.123 371.78 218.94C371.484 218.757 371.229 218.511 371.034 218.219C370.839 217.926 370.708 217.594 370.65 217.245C370.592 216.896 370.608 216.539 370.697 216.197L373.815 204.209C374.025 202.411 374.923 200.771 376.313 199.649C377.702 198.527 379.469 198.015 381.227 198.225C382.985 198.435 384.59 199.349 385.689 200.768C386.789 202.187 387.295 203.994 387.095 205.794L387.507 218.152C387.519 218.506 387.456 218.858 387.323 219.185C387.19 219.511 386.989 219.805 386.735 220.045C386.481 220.285 386.179 220.467 385.851 220.577C385.522 220.687 385.174 220.723 384.83 220.683V220.683Z" fill="#8D2828"/>
<path d="M436.863 189.177C436.802 189.453 436.762 189.733 436.743 190.016L415.277 202.691L410.059 199.617L404.497 207.07L413.217 213.431C413.922 213.945 414.77 214.211 415.635 214.19C416.5 214.168 417.334 213.86 418.013 213.312L440.149 195.438C441.148 195.816 442.236 195.875 443.268 195.605C444.3 195.335 445.227 194.75 445.927 193.928C446.626 193.105 447.064 192.085 447.183 191.001C447.301 189.918 447.095 188.823 446.591 187.862C446.087 186.902 445.309 186.121 444.361 185.624C443.413 185.127 442.339 184.938 441.283 185.08C440.227 185.223 439.239 185.691 438.449 186.423C437.659 187.155 437.106 188.116 436.863 189.177V189.177Z" fill="#FFB8B8"/>
<path d="M414.559 203.291L407.621 212.495C407.424 212.756 407.174 212.972 406.888 213.126C406.602 213.28 406.287 213.369 405.964 213.387C405.641 213.405 405.319 213.351 405.018 213.23C404.717 213.109 404.446 212.923 404.221 212.685L396.367 204.337C395.063 203.297 394.215 201.768 394.011 200.089C393.806 198.409 394.26 196.714 395.274 195.377C396.289 194.04 397.78 193.169 399.42 192.956C401.061 192.742 402.718 193.204 404.026 194.239L413.877 199.877C414.159 200.038 414.404 200.26 414.594 200.527C414.785 200.794 414.917 201.1 414.982 201.424C415.047 201.748 415.043 202.083 414.97 202.405C414.897 202.727 414.757 203.029 414.559 203.291H414.559Z" fill="#8D2828"/>
<path d="M420.219 266.992L406.9 200.589C406.267 197.433 404.463 194.651 401.868 192.827C399.272 191.004 396.088 190.281 392.983 190.811L388.541 191.569C386.998 191.832 385.52 192.403 384.193 193.251C382.866 194.099 381.715 195.206 380.805 196.508V196.508C379.361 198.579 378.387 200.954 377.957 203.46C377.527 205.965 377.651 208.538 378.32 210.988L385.672 237.919L380.216 266.772C380.155 267.092 380.17 267.422 380.259 267.735C380.348 268.048 380.509 268.335 380.729 268.571C380.948 268.807 381.22 268.986 381.521 269.093C381.821 269.2 382.143 269.232 382.458 269.186C385.19 268.786 389.692 268.215 394.864 267.904L397.665 256.843L398.805 267.728C405.157 267.546 412.053 267.865 417.742 269.378C418.071 269.468 418.417 269.47 418.748 269.385C419.078 269.3 419.381 269.13 419.629 268.891C419.878 268.652 420.062 268.352 420.165 268.02C420.268 267.687 420.287 267.334 420.219 266.992Z" fill="#8D2828"/>
<path d="M396.817 171.348C399.971 173.558 404.113 175.83 407.335 173.476C409.45 171.931 410.117 169.07 409.259 166.559C407.716 162.043 403.478 160.055 399.425 158.532C394.155 156.551 388.418 154.975 382.979 156.393C377.539 157.812 372.732 163.203 373.714 168.859C374.503 173.408 378.696 177.194 378.101 181.774C377.502 186.383 372.437 188.809 367.966 189.633C363.495 190.457 358.491 190.722 355.278 194.009C351.179 198.202 352.202 205.697 356.059 210.125C359.917 214.552 365.737 216.559 371.377 217.923C378.85 219.731 386.933 220.681 394.03 217.681C401.128 214.681 406.651 206.606 404.595 199.033C403.726 195.835 401.68 193.131 399.703 190.5C397.726 187.868 395.724 185.116 394.97 181.887C394.341 179.196 394.807 176.072 396.55 174.054C396.867 173.701 397.066 173.254 397.12 172.777C397.173 172.301 397.078 171.819 396.847 171.401L396.817 171.348Z" fill="#2F2E41"/>
<path d="M275.836 78.8547C277.235 78.8589 278.574 79.4293 279.563 80.4411C280.551 81.4529 281.108 82.824 281.113 84.2549V95.0544C281.108 96.4853 280.551 97.8564 279.563 98.8683C278.574 99.8801 277.235 100.45 275.836 100.455H265.285C263.887 100.45 262.548 99.8801 261.559 98.8683C260.57 97.8564 260.013 96.4853 260.009 95.0544V84.2549C260.013 82.824 260.57 81.4529 261.559 80.4411C262.548 79.4293 263.887 78.8589 265.285 78.8547H275.836V78.8547ZM275.836 76.6949H265.285C263.328 76.7007 261.453 77.4991 260.069 78.9156C258.685 80.3321 257.905 82.2517 257.899 84.2549V95.0544C257.905 97.0576 258.685 98.9772 260.069 100.394C261.453 101.81 263.328 102.609 265.285 102.614H275.836C277.794 102.609 279.669 101.81 281.053 100.394C282.437 98.9772 283.217 97.0576 283.223 95.0544V84.2549C283.217 82.2517 282.437 80.3321 281.053 78.9156C279.669 77.4991 277.794 76.7007 275.836 76.6949V76.6949Z" fill="#3F3D56"/>
<path d="M277.419 84.2549C277.001 84.254 276.6 84.0831 276.304 83.7796C276.009 83.4762 275.843 83.0651 275.843 82.6367C275.844 82.2083 276.01 81.7976 276.306 81.4948C276.603 81.192 277.004 81.022 277.423 81.022C277.841 81.022 278.243 81.192 278.539 81.4948C278.835 81.7976 279.002 82.2083 279.002 82.6367C279.002 83.0651 278.837 83.4762 278.541 83.7796C278.246 84.0831 277.845 84.254 277.426 84.2549C277.424 84.2549 277.421 84.2549 277.419 84.2549Z" fill="#3F3D56"/>
<path d="M270.561 85.3345C271.396 85.3345 272.212 85.5879 272.906 86.0626C273.6 86.5373 274.141 87.212 274.46 88.0014C274.78 88.7908 274.864 89.6594 274.701 90.4975C274.538 91.3355 274.136 92.1053 273.546 92.7094C272.955 93.3136 272.203 93.7251 271.384 93.8918C270.566 94.0584 269.717 93.9729 268.946 93.6459C268.174 93.3189 267.515 92.7652 267.051 92.0548C266.588 91.3443 266.34 90.5091 266.34 89.6546C266.34 88.5089 266.785 87.41 267.576 86.5999C268.368 85.7897 269.442 85.3345 270.561 85.3345V85.3345ZM270.561 83.1748C269.309 83.1748 268.085 83.5548 267.044 84.2668C266.003 84.9788 265.191 85.9908 264.712 87.1749C264.233 88.3589 264.107 89.6618 264.352 90.9188C264.596 92.1758 265.199 93.3304 266.084 94.2366C266.97 95.1428 268.098 95.76 269.326 96.01C270.554 96.2601 271.827 96.1317 272.984 95.6413C274.141 95.1508 275.129 94.3203 275.825 93.2547C276.521 92.1891 276.892 90.9362 276.892 89.6546C276.892 87.9361 276.225 86.2879 275.038 85.0727C273.85 83.8575 272.24 83.1748 270.561 83.1748V83.1748Z" fill="#3F3D56"/>
<path d="M154.537 351.213L148.574 349.775L151.155 325.55L159.956 327.672L154.537 351.213Z" fill="#FFB8B8"/>
<path d="M154.696 357.496L135.468 352.86L135.526 352.611C135.757 351.605 136.18 350.656 136.77 349.817C137.36 348.978 138.105 348.267 138.964 347.723C139.823 347.179 140.778 346.814 141.774 346.648C142.771 346.482 143.79 346.519 144.772 346.755L144.773 346.756L156.516 349.587L154.696 357.496Z" fill="#2F2E41"/>
<path d="M177.774 351.418H171.648L168.733 327.232L177.775 327.232L177.774 351.418Z" fill="#FFB8B8"/>
<path d="M179.336 357.496L159.583 357.496V357.24C159.583 356.206 159.781 355.183 160.168 354.228C160.554 353.274 161.121 352.406 161.834 351.675C162.548 350.945 163.396 350.365 164.329 349.969C165.262 349.574 166.262 349.37 167.271 349.37H167.272L179.337 349.371L179.336 357.496Z" fill="#2F2E41"/>
<path d="M210.862 255.766C211.272 255.082 211.531 254.313 211.619 253.515C211.708 252.717 211.625 251.909 211.376 251.147C211.126 250.386 210.717 249.689 210.176 249.107C209.635 248.525 208.976 248.071 208.246 247.778L190.309 201.223L180.33 207.424L201.099 251.236C200.699 252.525 200.775 253.919 201.312 255.155C201.849 256.39 202.811 257.381 204.014 257.939C205.217 258.498 206.579 258.585 207.841 258.185C209.103 257.784 210.178 256.924 210.862 255.766V255.766Z" fill="#FFB8B8"/>
<path d="M194.121 208.922L182.72 213.242C182.396 213.365 182.049 213.414 181.704 213.388C181.359 213.361 181.024 213.259 180.721 213.088C180.419 212.917 180.155 212.681 179.95 212.396C179.744 212.112 179.6 211.785 179.529 211.439L177.033 199.3C176.428 197.597 176.507 195.719 177.254 194.077C178 192.434 179.352 191.162 181.013 190.538C182.674 189.914 184.51 189.99 186.116 190.749C187.723 191.508 188.97 192.888 189.584 194.587L195.396 205.427C195.562 205.738 195.661 206.081 195.686 206.434C195.711 206.787 195.661 207.142 195.54 207.473C195.419 207.805 195.23 208.106 194.985 208.356C194.74 208.606 194.445 208.799 194.121 208.922V208.922Z" fill="#8D2828"/>
<path d="M177.367 342.736C177.337 342.736 177.307 342.735 177.277 342.734L168.594 342.378C168.007 342.358 167.451 342.102 167.047 341.665C166.644 341.229 166.424 340.648 166.435 340.047L167.101 290.946C167.104 290.749 167.032 290.558 166.901 290.413C166.77 290.268 166.589 290.181 166.396 290.169C166.204 290.158 166.014 290.223 165.867 290.35C165.72 290.478 165.626 290.659 165.606 290.855L160.569 340.01C160.516 340.51 160.306 340.98 159.969 341.346C159.632 341.713 159.187 341.956 158.702 342.04L158.672 342.045L150.52 341.39C150.199 341.44 149.87 341.418 149.558 341.326C149.246 341.234 148.957 341.073 148.711 340.856C148.465 340.638 148.268 340.369 148.134 340.066C147.999 339.763 147.931 339.434 147.933 339.101L148.42 255.845L188.422 258.436L179.602 340.685C179.54 341.248 179.278 341.768 178.866 342.146C178.454 342.524 177.921 342.734 177.367 342.736V342.736Z" fill="#2F2E41"/>
<path d="M170.055 183.166C176.834 183.166 182.328 177.542 182.328 170.604C182.328 163.666 176.834 158.042 170.055 158.042C163.277 158.042 157.782 163.666 157.782 170.604C157.782 177.542 163.277 183.166 170.055 183.166Z" fill="#FFB8B8"/>
<path d="M186.433 262.102C186.377 262.102 186.32 262.1 186.263 262.096L149.293 259.328C148.718 259.285 148.181 259.018 147.793 258.581C147.406 258.145 147.196 257.573 147.209 256.984L148.183 209.466C148.118 206.551 148.635 203.652 149.702 200.948C150.769 198.244 152.363 195.791 154.389 193.74C156.414 191.688 158.827 190.081 161.48 189.017C164.133 187.953 166.97 187.455 169.817 187.552C172.665 187.649 175.464 188.34 178.041 189.582C180.619 190.824 182.922 192.592 184.81 194.777C186.697 196.962 188.129 199.518 189.018 202.289C189.906 205.059 190.233 207.987 189.979 210.891C189.332 218.215 188.818 250.208 188.676 259.839C188.667 260.442 188.426 261.017 188.007 261.44C187.587 261.864 187.022 262.101 186.433 262.102V262.102Z" fill="#8D2828"/>
<path d="M120.549 184.712C120.61 184.988 120.65 185.268 120.668 185.551L142.135 198.226L147.352 195.151L152.915 202.605L144.194 208.966C143.49 209.48 142.642 209.746 141.777 209.724C140.912 209.703 140.077 209.395 139.398 208.846L117.263 190.973C116.264 191.351 115.176 191.409 114.144 191.14C113.112 190.87 112.184 190.285 111.485 189.463C110.786 188.64 110.348 187.619 110.229 186.536C110.11 185.452 110.317 184.358 110.821 183.397C111.325 182.437 112.103 181.656 113.051 181.159C113.999 180.662 115.072 180.472 116.128 180.615C117.184 180.758 118.173 181.226 118.963 181.958C119.752 182.69 120.305 183.65 120.549 184.712V184.712Z" fill="#FFB8B8"/>
<path d="M142.43 196.959C142.494 196.635 142.626 196.329 142.817 196.062C143.008 195.795 143.253 195.573 143.535 195.412L153.385 189.774C154.694 188.741 156.35 188.281 157.99 188.495C159.629 188.709 161.119 189.579 162.133 190.916C163.146 192.252 163.601 193.945 163.397 195.624C163.193 197.303 162.347 198.831 161.044 199.872L153.19 208.22C152.966 208.458 152.694 208.644 152.394 208.765C152.093 208.886 151.77 208.94 151.447 208.921C151.125 208.903 150.81 208.814 150.524 208.66C150.238 208.506 149.988 208.291 149.79 208.029L142.852 198.826C142.655 198.564 142.515 198.262 142.442 197.94C142.369 197.617 142.365 197.283 142.43 196.959V196.959Z" fill="#8D2828"/>
<path d="M176.398 180.55C174.509 180.535 172.654 180.031 171.007 179.085C169.36 178.138 167.974 176.78 166.979 175.136C166.871 174.963 166.28 174.075 165.596 173.047C163.674 170.158 163.223 169.471 163.185 169.37C162.665 167.996 161.014 167.466 159.721 167.263C159.479 167.225 159.234 167.191 158.989 167.157C157.167 166.907 155.284 166.649 154.251 164.6C153.493 163.096 152.254 156.972 153.206 155.475C154.399 153.598 156.689 154.208 158.904 154.798C160.322 155.174 161.787 155.564 162.955 155.316C168.016 154.238 173.753 153.016 178.82 156.174C182.852 158.687 185.278 163.433 185.15 168.56C185.012 174.066 182.666 178.412 178.874 180.186L178.084 180.421L177.64 180.477C177.228 180.525 176.813 180.55 176.398 180.55V180.55Z" fill="#2F2E41"/>
<path d="M456.747 160.983C453.587 160.984 450.523 162.097 448.07 164.137C445.617 166.176 443.925 169.017 443.277 172.183C442.629 175.349 443.065 178.647 444.512 181.522C445.959 184.398 448.329 186.676 451.224 187.974C451.166 186.891 451.246 185.804 451.463 184.742C451.727 183.597 453.233 177.063 453.233 177.063C452.932 176.362 452.781 175.603 452.79 174.837C452.79 172.75 453.97 171.19 455.445 171.19C456.698 171.19 457.3 172.152 457.3 173.303C457.3 174.592 456.495 176.516 456.084 178.302C456.002 178.633 455.997 178.979 456.069 179.312C456.142 179.645 456.29 179.956 456.502 180.22C456.713 180.484 456.983 180.693 457.288 180.831C457.593 180.968 457.926 181.031 458.259 181.013C460.864 181.013 462.621 177.585 462.621 173.523C462.621 170.435 460.587 168.127 456.895 168.127C452.723 168.127 450.118 171.316 450.118 174.875C450.077 175.879 450.401 176.862 451.027 177.636C451.137 177.729 451.215 177.855 451.25 177.996C451.286 178.137 451.276 178.286 451.224 178.422C451.156 178.68 451.009 179.302 450.941 179.554C450.929 179.63 450.9 179.702 450.855 179.764C450.811 179.826 450.753 179.877 450.685 179.911C450.618 179.945 450.544 179.963 450.469 179.962C450.393 179.961 450.319 179.942 450.253 179.906C448.33 179.101 447.433 176.95 447.433 174.523C447.433 170.523 450.732 165.725 457.269 165.725C462.523 165.725 465.982 169.618 465.982 173.793C465.982 179.321 462.977 183.446 458.554 183.446C457.067 183.446 455.672 182.623 455.193 181.692C455.193 181.692 454.394 184.937 454.222 185.566C453.904 186.634 453.439 187.651 452.84 188.584C454.732 189.157 456.724 189.305 458.678 189.021C460.632 188.736 462.503 188.025 464.165 186.935C465.827 185.845 467.24 184.402 468.31 182.704C469.379 181.006 470.078 179.092 470.362 177.093C470.645 175.094 470.504 173.055 469.95 171.116C469.396 169.177 468.441 167.383 467.149 165.855C465.858 164.327 464.261 163.102 462.466 162.261C460.671 161.42 458.721 160.985 456.747 160.983V160.983Z" fill="#3F3D56"/>
<path d="M379.245 114.782L361.543 109.208C361.319 109.125 361.081 109.088 360.843 109.099C360.605 109.111 360.371 109.17 360.156 109.274C359.94 109.378 359.747 109.525 359.587 109.706C359.426 109.887 359.303 110.098 359.223 110.328L353.765 128.486C353.63 128.979 353.685 129.505 353.918 129.957C354.151 130.41 354.545 130.753 355.018 130.917L372.714 136.49C373.186 136.618 373.687 136.551 374.111 136.303C374.534 136.055 374.844 135.646 374.975 135.165L380.433 117.007C380.505 116.781 380.531 116.543 380.51 116.306C380.489 116.07 380.42 115.84 380.309 115.632C380.198 115.423 380.046 115.24 379.863 115.094C379.68 114.948 379.47 114.842 379.245 114.782ZM360.866 128.803L357.828 127.847L360.734 118.177L363.773 119.133L360.866 128.803ZM362.801 117.218L362.779 117.211C362.343 117.07 361.979 116.758 361.767 116.344C361.555 115.929 361.512 115.445 361.648 114.998C361.784 114.551 362.087 114.177 362.492 113.959C362.896 113.74 363.369 113.695 363.806 113.833C364.244 113.97 364.61 114.28 364.824 114.693C365.039 115.107 365.085 115.59 364.952 116.038C364.819 116.486 364.518 116.862 364.114 117.083C363.711 117.304 363.239 117.353 362.801 117.218V117.218ZM371.972 132.3L368.933 131.344L370.522 126.056C370.903 124.789 370.721 123.785 369.622 123.439C369.277 123.333 368.909 123.34 368.568 123.457C368.227 123.575 367.93 123.798 367.719 124.096C367.564 124.316 367.45 124.564 367.384 124.827L365.728 130.334L362.69 129.378L365.596 119.708L368.635 120.664L368.23 122.01C368.654 121.607 369.176 121.329 369.742 121.204C370.307 121.079 370.895 121.113 371.443 121.301C373.438 121.929 374.542 123.75 373.67 126.651L371.972 132.3Z" fill="#3F3D56"/>
<path fill-rule="evenodd" clip-rule="evenodd" d="M107.943 191.347C107.942 188.664 107.19 186.036 105.777 183.776C104.363 181.517 102.346 179.719 99.9643 178.596C97.5831 177.473 94.9373 177.071 92.3402 177.44C89.7431 177.808 87.3035 178.93 85.3101 180.673C83.3168 182.416 81.8531 184.708 81.0925 187.276C80.3319 189.844 80.3061 192.581 81.0183 195.164C81.7304 197.747 83.1507 200.066 85.1109 201.849C87.0711 203.631 89.4891 204.801 92.0788 205.22V195.408H88.5943V191.347H92.0788V188.253C92.0788 184.734 94.1276 182.788 97.2612 182.788C98.2903 182.803 99.3169 182.895 100.333 183.063V186.519H98.602C96.8986 186.519 96.3657 187.601 96.3657 188.713V191.348H100.171L99.563 195.408H96.3657V205.221C99.5933 204.698 102.532 203.013 104.655 200.47C106.777 197.927 107.943 194.692 107.943 191.347L107.943 191.347Z" fill="#3F3D56"/>
<path d="M476.765 357.489C476.765 357.624 476.712 357.754 476.618 357.85C476.525 357.946 476.398 358 476.266 358H73.4997C73.3672 358 73.2401 357.946 73.1464 357.85C73.0526 357.754 73 357.624 73 357.489C73 357.353 73.0526 357.223 73.1464 357.127C73.2401 357.031 73.3672 356.977 73.4997 356.977H476.266C476.398 356.977 476.525 357.031 476.618 357.127C476.712 357.223 476.765 357.353 476.765 357.489V357.489Z" fill="#3F3D56"/>
</g>
<defs>
<clipPath id="clip0">
<rect width="404" height="290" fill="white" transform="translate(73 68)"/>
</clipPath>
</defs>
</svg>
