<svg width="563" height="377" viewBox="0 0 563 377" fill="none" xmlns="http://www.w3.org/2000/svg">
<path opacity="0.1" d="M327.288 62.3466C291.26 61.0941 256.946 49.4651 224.18 36.7393C191.414 24.0136 158.959 9.91293 123.772 3.17153C101.176 -1.16501 75.3071 -1.77736 57.0814 10.3416C39.546 22.0319 33.879 42.1558 30.834 60.8436C28.5404 74.9109 27.1933 89.7075 33.4726 102.873C37.837 112.014 45.5749 119.696 50.9301 128.48C69.5622 158.942 56.3912 196.507 36.2059 226.25C26.7424 240.2 15.7479 253.527 8.43872 268.368C1.12951 283.21 -2.24954 300.238 4.14672 315.386C10.4817 330.416 25.5845 341.683 41.9453 349.621C75.1735 365.732 114.314 370.347 152.508 372.958C237.028 378.741 321.994 376.236 406.738 373.731C438.101 372.802 469.598 371.861 500.449 367.012C517.584 364.318 535.27 360.043 547.706 349.755C563.499 336.656 567.412 314.473 556.83 298.051C539.083 270.501 490.028 263.653 477.609 234.088C470.784 217.816 477.793 199.685 487.718 184.594C509.006 152.212 544.683 123.81 546.559 86.796C547.851 61.378 530.699 35.921 504.179 23.8912C476.384 11.2824 437.834 12.8689 417.337 33.7388C396.211 55.1822 359.103 63.4489 327.288 62.3466Z" fill="#8D2828"/>
<g clip-path="url(#clip0)">
<path d="M330.913 272.146V341.328H157.588C137.84 341.328 121.773 325.81 121.773 306.737C121.773 287.664 137.84 272.146 157.588 272.146H330.913Z" fill="#F2F2F2"/>
<path d="M335.171 340.795C335.171 341.501 334.89 342.178 334.391 342.677C333.892 343.176 333.216 343.456 332.51 343.456H154.501C144.833 343.456 135.561 339.616 128.725 332.779C121.889 325.943 118.048 316.671 118.048 307.003C118.048 297.335 121.889 288.063 128.725 281.227C135.561 274.39 144.833 270.55 154.501 270.55H332.51C333.216 270.55 333.892 270.83 334.391 271.329C334.89 271.828 335.171 272.505 335.171 273.211C335.171 273.916 334.89 274.593 334.391 275.092C333.892 275.591 333.216 275.871 332.51 275.871H154.501C146.245 275.871 138.326 279.151 132.488 284.99C126.65 290.828 123.37 298.746 123.37 307.003C123.37 315.26 126.65 323.178 132.488 329.016C138.326 334.855 146.245 338.135 154.501 338.135H332.51C333.216 338.135 333.892 338.415 334.391 338.914C334.89 339.413 335.171 340.09 335.171 340.795Z" fill="#8D2828"/>
<path d="M330.914 288.111H144.656C144.515 288.111 144.38 288.055 144.28 287.955C144.18 287.856 144.124 287.72 144.124 287.579C144.124 287.438 144.18 287.303 144.28 287.203C144.38 287.103 144.515 287.047 144.656 287.047H330.914C331.055 287.047 331.19 287.103 331.29 287.203C331.39 287.303 331.446 287.438 331.446 287.579C331.446 287.72 331.39 287.856 331.29 287.955C331.19 288.055 331.055 288.111 330.914 288.111Z" fill="#8D2828"/>
<path d="M330.914 300.883H144.656C144.515 300.883 144.38 300.827 144.28 300.727C144.18 300.628 144.124 300.492 144.124 300.351C144.124 300.21 144.18 300.075 144.28 299.975C144.38 299.875 144.515 299.819 144.656 299.819H330.914C331.055 299.819 331.19 299.875 331.29 299.975C331.39 300.075 331.446 300.21 331.446 300.351C331.446 300.492 331.39 300.628 331.29 300.727C331.19 300.827 331.055 300.883 330.914 300.883Z" fill="#8D2828"/>
<path d="M330.914 313.655H144.656C144.515 313.655 144.38 313.599 144.28 313.499C144.18 313.399 144.124 313.264 144.124 313.123C144.124 312.982 144.18 312.846 144.28 312.747C144.38 312.647 144.515 312.591 144.656 312.591H330.914C331.055 312.591 331.19 312.647 331.29 312.747C331.39 312.846 331.446 312.982 331.446 313.123C331.446 313.264 331.39 313.399 331.29 313.499C331.19 313.599 331.055 313.655 330.914 313.655Z" fill="#8D2828"/>
<path d="M330.914 326.427H144.656C144.515 326.427 144.38 326.371 144.28 326.271C144.18 326.171 144.124 326.036 144.124 325.895C144.124 325.754 144.18 325.618 144.28 325.519C144.38 325.419 144.515 325.363 144.656 325.363H330.914C331.055 325.363 331.19 325.419 331.29 325.519C331.39 325.618 331.446 325.754 331.446 325.895C331.446 326.036 331.39 326.171 331.29 326.271C331.19 326.371 331.055 326.427 330.914 326.427Z" fill="#8D2828"/>
<path d="M464.868 285.169L421.463 339.039L286.498 230.291C271.12 217.901 268.345 195.737 280.312 180.885C292.279 166.033 314.526 164.031 329.904 176.421L464.868 285.169Z" fill="#F2F2F2"/>
<path d="M425.111 341.296C424.669 341.845 424.026 342.196 423.324 342.271C422.622 342.347 421.92 342.141 421.37 341.698L282.758 230.012C275.23 223.946 270.42 215.138 269.385 205.525C268.351 195.913 271.178 186.283 277.244 178.755C283.31 171.227 292.118 166.416 301.731 165.382C311.343 164.348 320.973 167.175 328.501 173.241L467.113 284.927C467.385 285.147 467.612 285.417 467.78 285.724C467.947 286.031 468.053 286.367 468.09 286.715C468.128 287.063 468.096 287.414 467.998 287.749C467.9 288.085 467.736 288.398 467.517 288.67C467.297 288.942 467.027 289.168 466.72 289.336C466.413 289.503 466.076 289.609 465.729 289.646C465.381 289.683 465.03 289.652 464.694 289.553C464.359 289.454 464.046 289.291 463.774 289.071L325.162 177.385C321.979 174.818 318.321 172.903 314.398 171.75C310.474 170.597 306.362 170.228 302.296 170.665C298.231 171.102 294.29 172.335 290.701 174.295C287.112 176.254 283.944 178.902 281.379 182.086C278.813 185.27 276.9 188.929 275.748 192.853C274.597 196.777 274.23 200.889 274.668 204.954C275.106 209.02 276.341 212.96 278.302 216.548C280.263 220.137 282.912 223.303 286.097 225.868L424.709 337.554C425.258 337.997 425.609 338.64 425.685 339.342C425.76 340.043 425.554 340.746 425.111 341.296Z" fill="#8D2828"/>
<path d="M454.852 297.6L309.817 180.739C309.762 180.695 309.717 180.641 309.684 180.579C309.65 180.518 309.629 180.451 309.621 180.381C309.614 180.312 309.62 180.241 309.64 180.174C309.66 180.107 309.692 180.045 309.736 179.99C309.78 179.936 309.834 179.891 309.895 179.857C309.957 179.824 310.024 179.803 310.094 179.795C310.163 179.788 310.233 179.794 310.3 179.814C310.368 179.833 310.43 179.866 310.484 179.91L455.519 296.772C455.574 296.815 455.619 296.87 455.653 296.931C455.686 296.992 455.708 297.06 455.715 297.129C455.723 297.199 455.716 297.269 455.697 297.336C455.677 297.403 455.644 297.466 455.6 297.52C455.556 297.575 455.502 297.62 455.441 297.654C455.38 297.687 455.312 297.708 455.243 297.716C455.173 297.723 455.103 297.717 455.036 297.697C454.969 297.677 454.906 297.644 454.852 297.6V297.6Z" fill="#8D2828"/>
<path d="M446.838 307.546L301.803 190.684C301.694 190.595 301.624 190.467 301.609 190.327C301.594 190.186 301.635 190.046 301.723 189.936C301.812 189.826 301.94 189.756 302.081 189.741C302.221 189.726 302.361 189.767 302.471 189.855L447.506 306.717C447.56 306.761 447.606 306.815 447.639 306.876C447.673 306.938 447.694 307.005 447.702 307.074C447.709 307.144 447.703 307.214 447.683 307.281C447.664 307.349 447.631 307.411 447.587 307.466C447.543 307.52 447.489 307.565 447.428 307.599C447.366 307.632 447.299 307.653 447.229 307.661C447.16 307.668 447.089 307.662 447.022 307.642C446.955 307.622 446.893 307.59 446.838 307.546Z" fill="#8D2828"/>
<path d="M438.825 317.491L293.79 200.629C293.68 200.541 293.61 200.412 293.595 200.272C293.58 200.131 293.621 199.991 293.709 199.881C293.798 199.771 293.927 199.701 294.067 199.686C294.207 199.671 294.348 199.712 294.458 199.8L439.493 316.662C439.547 316.706 439.592 316.76 439.626 316.822C439.659 316.883 439.68 316.95 439.688 317.02C439.695 317.089 439.689 317.159 439.669 317.226C439.65 317.294 439.617 317.356 439.573 317.41C439.529 317.465 439.475 317.51 439.414 317.544C439.352 317.577 439.285 317.598 439.216 317.606C439.146 317.613 439.076 317.607 439.009 317.587C438.942 317.568 438.879 317.535 438.825 317.491V317.491Z" fill="#8D2828"/>
<path d="M430.812 327.436L285.777 210.574C285.722 210.531 285.677 210.477 285.643 210.415C285.61 210.354 285.589 210.287 285.581 210.217C285.574 210.148 285.58 210.077 285.6 210.01C285.62 209.943 285.652 209.881 285.696 209.826C285.74 209.772 285.794 209.727 285.855 209.693C285.917 209.66 285.984 209.638 286.054 209.631C286.123 209.624 286.193 209.63 286.26 209.649C286.327 209.669 286.39 209.702 286.444 209.746L431.479 326.607C431.534 326.651 431.579 326.705 431.613 326.767C431.646 326.828 431.667 326.895 431.675 326.965C431.683 327.035 431.676 327.105 431.657 327.172C431.637 327.239 431.604 327.302 431.56 327.356C431.516 327.411 431.462 327.456 431.401 327.489C431.339 327.523 431.272 327.544 431.203 327.551C431.133 327.559 431.063 327.553 430.996 327.533C430.928 327.513 430.866 327.48 430.812 327.436Z" fill="#8D2828"/>
<path d="M474.005 343.988H79.1392C78.9981 343.988 78.8627 343.932 78.7629 343.833C78.6631 343.733 78.6071 343.597 78.6071 343.456C78.6071 343.315 78.6631 343.18 78.7629 343.08C78.8627 342.98 78.9981 342.924 79.1392 342.924H474.005C474.146 342.924 474.281 342.98 474.381 343.08C474.481 343.18 474.537 343.315 474.537 343.456C474.537 343.597 474.481 343.733 474.381 343.833C474.281 343.932 474.146 343.988 474.005 343.988Z" fill="#8D2828"/>
<path d="M258.522 264.875L252.438 264.874L249.544 241.408L258.524 241.409L258.522 264.875Z" fill="#FFB8B8"/>
<path d="M248.092 263.136H259.825V270.524H240.704C240.704 269.553 240.896 268.593 241.267 267.697C241.638 266.8 242.182 265.986 242.868 265.3C243.554 264.614 244.369 264.07 245.265 263.698C246.161 263.327 247.122 263.136 248.092 263.136Z" fill="#2F2E41"/>
<path d="M196.367 264.875L190.284 264.874L187.39 241.408L196.37 241.409L196.367 264.875Z" fill="#FFB8B8"/>
<path d="M185.938 263.136H197.671V270.524H178.551C178.551 269.553 178.742 268.593 179.113 267.697C179.484 266.8 180.028 265.986 180.714 265.3C181.4 264.614 182.215 264.07 183.111 263.698C184.007 263.327 184.968 263.136 185.938 263.136Z" fill="#2F2E41"/>
<path d="M216.688 90.81V88.1492C216.688 83.5975 218.496 79.2322 221.715 76.0136C224.933 72.7951 229.299 70.9869 233.85 70.9869H233.85C238.402 70.9869 242.767 72.7951 245.986 76.0136C249.205 79.2322 251.013 83.5975 251.013 88.1492V90.81C251.013 94.0915 249.709 97.2386 247.389 99.5589C245.068 101.879 241.921 103.183 238.64 103.183H229.061C227.436 103.183 225.827 102.863 224.326 102.241C222.825 101.619 221.461 100.708 220.312 99.5589C219.163 98.41 218.252 97.046 217.63 95.5449C217.008 94.0438 216.688 92.4349 216.688 90.81Z" fill="#2F2E41"/>
<path d="M233.85 104.098C241.069 104.098 246.921 98.2465 246.921 91.0279C246.921 83.8092 241.069 77.9574 233.85 77.9574C226.632 77.9574 220.78 83.8092 220.78 91.0279C220.78 98.2465 226.632 104.098 233.85 104.098Z" fill="#FFB8B8"/>
<path d="M162.755 135.949C163.286 135.449 163.919 135.07 164.612 134.841C165.304 134.611 166.039 134.537 166.763 134.622C167.488 134.707 168.185 134.95 168.805 135.333C169.426 135.717 169.955 136.232 170.355 136.842L181.559 134.723L184.508 141.217L168.643 143.988C167.573 144.592 166.319 144.783 165.119 144.524C163.918 144.265 162.854 143.575 162.128 142.584C161.403 141.593 161.066 140.37 161.181 139.148C161.297 137.925 161.857 136.787 162.755 135.949V135.949Z" fill="#FFB8B8"/>
<path d="M223.66 112.33L223.807 112.552L205.433 124.655L174.43 134.555C174.019 134.688 173.667 134.958 173.433 135.321C173.199 135.683 173.098 136.116 173.147 136.545L173.823 142.37C173.853 142.628 173.937 142.877 174.068 143.1C174.2 143.324 174.377 143.518 174.588 143.669C174.799 143.82 175.039 143.926 175.293 143.979C175.548 144.032 175.81 144.031 176.064 143.977L205.242 137.722C206.654 137.421 207.989 136.833 209.165 135.995L229.806 121.309C230.555 120.774 231.152 120.054 231.54 119.219C231.927 118.385 232.093 117.465 232.019 116.547C231.944 115.629 231.63 114.746 231.11 113.986C230.589 113.225 229.88 112.613 229.051 112.21C228.223 111.807 227.303 111.626 226.384 111.686C225.464 111.746 224.576 112.044 223.807 112.552L223.66 112.33Z" fill="#8D2828"/>
<path d="M252.546 258.216C252.079 258.216 251.623 258.08 251.232 257.825C250.841 257.569 250.532 257.206 250.345 256.778L222.454 187.863C222.389 187.713 222.279 187.587 222.141 187.502C222.002 187.416 221.84 187.375 221.677 187.384C221.514 187.394 221.358 187.452 221.23 187.553C221.102 187.653 221.007 187.791 220.959 187.947L198.205 255.039C198.109 255.351 197.95 255.64 197.738 255.889C197.526 256.137 197.265 256.34 196.972 256.484C196.679 256.628 196.359 256.711 196.033 256.727C195.707 256.743 195.381 256.692 195.075 256.577L187.444 253.716C187.03 253.562 186.667 253.296 186.395 252.948C186.123 252.6 185.952 252.183 185.903 251.744C182.47 221.841 212.405 146.36 212.707 145.601L212.791 145.391L240.079 151.427L240.136 151.489C251.023 163.366 259.971 238.275 261.655 253.172C261.718 253.71 261.595 254.253 261.308 254.712C261.02 255.171 260.585 255.519 260.074 255.698L253.338 258.08C253.084 258.17 252.816 258.216 252.546 258.216Z" fill="#2F2E41"/>
<path d="M229.035 153.857C222.424 153.857 215.053 152.539 212.784 147.098L212.732 146.973L212.802 146.857C214.593 143.919 216.96 138.906 215.688 137.965C213.182 136.112 211.966 133.064 212.074 128.905C212.308 119.877 218.46 111.861 227.382 108.958H227.382C229.872 108.161 232.407 107.509 234.972 107.004C236.843 106.627 238.773 106.668 240.626 107.126C242.478 107.583 244.206 108.445 245.686 109.65C247.184 110.862 248.395 112.392 249.232 114.128C250.069 115.864 250.511 117.765 250.527 119.692C250.62 129.341 249.135 142.779 241.527 152.005C241.17 152.433 240.674 152.722 240.125 152.82C236.465 153.482 232.755 153.829 229.035 153.857Z" fill="#8D2828"/>
<path d="M226.576 153.496C226.936 152.205 227.79 151.108 228.954 150.444C230.118 149.78 231.496 149.602 232.791 149.949C233.055 150.023 233.312 150.118 233.561 150.234L242.069 142.492L247.985 146.478L235.819 157.244C235.27 158.235 234.405 159.013 233.362 159.455C232.319 159.898 231.159 159.979 230.065 159.685C229.427 159.511 228.831 159.212 228.31 158.805C227.789 158.399 227.354 157.894 227.029 157.318C226.705 156.742 226.498 156.108 226.42 155.452C226.342 154.796 226.395 154.131 226.576 153.496Z" fill="#FFB8B8"/>
<path d="M240.721 153.594C240.169 153.594 239.634 153.403 239.207 153.054L235.852 150.312C235.572 150.083 235.348 149.795 235.196 149.467C235.043 149.14 234.967 148.782 234.973 148.421C234.978 148.06 235.065 147.704 235.228 147.382C235.39 147.059 235.623 146.777 235.91 146.558L249.981 135.765C250.148 135.637 250.257 135.448 250.286 135.239C250.314 135.03 250.259 134.819 250.132 134.651L241.447 123.169C240.438 121.839 239.932 120.195 240.018 118.528C240.105 116.862 240.778 115.279 241.919 114.061C243.121 112.763 244.767 111.964 246.53 111.823C248.294 111.682 250.045 112.209 251.438 113.3L251.493 113.358L260.562 126.344C261.543 127.113 262.333 128.098 262.87 129.222C263.407 130.347 263.676 131.58 263.658 132.826C263.639 134.073 263.333 135.297 262.763 136.406C262.193 137.514 261.374 138.475 260.371 139.214L242.147 153.124C241.734 153.429 241.234 153.594 240.721 153.594Z" fill="#8D2828"/>
<path d="M222.273 87.3509V80.8659L233.85 75.8103L244.89 80.8659V87.3509C244.89 87.6332 244.778 87.9039 244.578 88.1035C244.378 88.3031 244.108 88.4152 243.825 88.4152H223.337C223.055 88.4152 222.784 88.3031 222.585 88.1035C222.385 87.9039 222.273 87.6332 222.273 87.3509Z" fill="#2F2E41"/>
<path d="M233.319 71.8472C231.617 66.3986 235.192 60.1543 240.477 57.9976C245.762 55.8409 252.085 57.3485 256.545 60.9117C261.005 64.4749 263.772 69.8118 265.238 75.3286C266.704 80.8455 266.982 86.5982 267.253 92.3001C273.746 93.4929 278.164 101.195 275.914 107.402C273.665 113.609 265.339 116.693 259.588 113.449C253.838 110.204 252.173 101.483 256.323 96.3482C258.286 93.9185 259.383 90.9031 259.44 87.7796C259.496 84.6561 258.509 81.603 256.634 79.104C254.76 76.6049 252.105 74.8028 249.09 73.9829C246.076 73.163 242.874 73.3722 239.992 74.5775C236.792 75.9159 232.776 72.4386 233.319 71.8472Z" fill="#2F2E41"/>
<path d="M160.355 110.793C152.58 110.742 144.903 109.06 137.819 105.857C137.397 105.669 137.039 105.362 136.789 104.975C136.538 104.587 136.406 104.135 136.408 103.673V84.2925C136.408 83.6576 136.661 83.0489 137.11 82.5999C137.559 82.151 138.167 81.8985 138.802 81.8978H181.908C182.543 81.8985 183.151 82.151 183.6 82.6C184.049 83.0489 184.302 83.6576 184.302 84.2925V103.673C184.304 104.135 184.172 104.587 183.921 104.975C183.671 105.362 183.313 105.669 182.891 105.857C175.807 109.06 168.13 110.742 160.355 110.793Z" fill="#8D2828"/>
<path d="M160.349 95.0922C160.029 95.0925 159.713 95.0289 159.418 94.9051L125.237 80.4837C124.796 80.2977 124.421 79.984 124.16 79.5829C123.899 79.1819 123.764 78.7119 123.773 78.2335C123.782 77.7552 123.934 77.2904 124.209 76.8992C124.484 76.508 124.871 76.2082 125.318 76.0385L159.5 63.0709C160.051 62.8611 160.66 62.8624 161.209 63.0745L194.934 76.0421C195.378 76.2132 195.762 76.513 196.035 76.9033C196.309 77.2936 196.46 77.7566 196.468 78.2331C196.477 78.7095 196.344 79.1778 196.085 79.5779C195.826 79.9781 195.454 80.2919 195.016 80.4793L161.291 94.9004C160.993 95.0273 160.673 95.0925 160.349 95.0922Z" fill="#8D2828"/>
<path d="M140.399 107.176C142.162 107.176 143.592 105.746 143.592 103.983C143.592 102.219 142.162 100.79 140.399 100.79C138.635 100.79 137.206 102.219 137.206 103.983C137.206 105.746 138.635 107.176 140.399 107.176Z" fill="#333333"/>
<path opacity="0.2" d="M195.132 78.4322L161.407 92.8534C161.144 92.9658 160.862 93.0241 160.576 93.0248C160.29 93.0255 160.007 92.9686 159.743 92.8575L125.561 78.4364C125.132 78.2597 124.774 77.9449 124.543 77.5418C124.393 77.8032 124.299 78.0936 124.269 78.3938C124.239 78.6941 124.274 78.9972 124.37 79.2831C124.466 79.5691 124.622 79.8312 124.828 80.0523C125.033 80.2733 125.283 80.4481 125.561 80.5651L159.743 94.9861C160.007 95.0973 160.29 95.1542 160.576 95.1535C160.862 95.1528 161.144 95.0945 161.407 94.9821L195.132 80.5609C195.409 80.4429 195.657 80.2675 195.861 80.0464C196.065 79.8252 196.22 79.5634 196.315 79.2781C196.411 78.9927 196.444 78.6905 196.414 78.3912C196.384 78.0919 196.291 77.8024 196.14 77.5418C195.912 77.9416 195.557 78.2546 195.132 78.4322Z" fill="#003D82"/>
<path d="M140.667 103.97C140.808 103.97 140.944 103.914 141.043 103.814C141.143 103.714 141.199 103.579 141.199 103.438V85.631L158.751 79.237C158.892 79.2391 159.028 79.185 159.129 79.0867C159.231 78.9884 159.289 78.8539 159.291 78.7127C159.293 78.5716 159.239 78.4354 159.141 78.3341C159.042 78.2328 158.908 78.1748 158.767 78.1727L141.215 84.5667C141.074 84.5634 140.934 84.5889 140.802 84.6415C140.671 84.6941 140.552 84.7728 140.452 84.8728C140.352 84.9715 140.271 85.0895 140.217 85.2198C140.162 85.35 140.135 85.4898 140.135 85.631V103.438C140.135 103.579 140.191 103.714 140.291 103.814C140.391 103.914 140.526 103.97 140.667 103.97Z" fill="#333333"/>
</g>
<defs>
<clipPath id="clip0">
<rect width="395.93" height="286.988" fill="white" transform="translate(78.6071 57)"/>
</clipPath>
</defs>
</svg>
